<?xml version="1.0" encoding="utf-8"?>
<!-- Generator: Adobe Illustrator 23.0.2, SVG Export Plug-In . SVG Version: 6.00 Build 0)  -->
<svg version="1.1" id="BACKGROUND" xmlns="http://www.w3.org/2000/svg" xmlns:xlink="http://www.w3.org/1999/xlink" x="0px" y="0px"
	 viewBox="0 0 1400 1000" style="enable-background:new 0 0 1400 1000;" xml:space="preserve">
<style type="text/css">
	.st0{fill:url(#SVGID_1_);}
	.st1{fill:url(#SVGID_2_);}
	.st2{opacity:0.14;fill:url(#SVGID_3_);}
	.st3{fill:url(#SVGID_4_);}
	.st4{opacity:0.14;fill:url(#SVGID_5_);}
	.st5{fill:url(#SVGID_6_);}
	.st6{opacity:0.29;fill:url(#SVGID_7_);}
	.st7{fill:url(#SVGID_8_);}
	.st8{opacity:0.29;fill:url(#SVGID_9_);}
	.st9{opacity:0.3;}
	.st10{fill:url(#SVGID_10_);}
	.st11{opacity:0.29;fill:url(#SVGID_11_);}
	.st12{fill:url(#SVGID_12_);}
	.st13{fill:url(#SVGID_13_);}
	.st14{opacity:0.29;fill:url(#SVGID_14_);}
</style>
<g>
	<radialGradient id="SVGID_1_" cx="723.1055" cy="529.2294" r="686.8052" gradientUnits="userSpaceOnUse">
		<stop  offset="0" style="stop-color:#414141"/>
		<stop  offset="1" style="stop-color:#010101"/>
	</radialGradient>
	<rect class="st0" width="1400" height="1000"/>
	<g>
		<g>
			<linearGradient id="SVGID_2_" gradientUnits="userSpaceOnUse" x1="254.5957" y1="952.0501" x2="4.9101" y2="828.5497">
				<stop  offset="0" style="stop-color:#010101"/>
				<stop  offset="1" style="stop-color:#414141"/>
			</linearGradient>
			<polygon class="st1" points="-0.92,688.16 -0.92,1000 704,1000 			"/>
			<linearGradient id="SVGID_3_" gradientUnits="userSpaceOnUse" x1="353.8147" y1="846.4271" x2="38.964" y2="710.1484">
				<stop  offset="0" style="stop-color:#121C26"/>
				<stop  offset="0.048" style="stop-color:#3F474F"/>
				<stop  offset="0.1099" style="stop-color:#71777D"/>
				<stop  offset="0.173" style="stop-color:#9DA1A5"/>
				<stop  offset="0.2364" style="stop-color:#C0C3C5"/>
				<stop  offset="0.3001" style="stop-color:#DCDDDF"/>
				<stop  offset="0.3641" style="stop-color:#EFF0F1"/>
				<stop  offset="0.4288" style="stop-color:#FBFBFB"/>
				<stop  offset="0.4951" style="stop-color:#FFFFFF"/>
				<stop  offset="0.5619" style="stop-color:#FBFBFB"/>
				<stop  offset="0.6278" style="stop-color:#EFF0F1"/>
				<stop  offset="0.6933" style="stop-color:#DBDDDE"/>
				<stop  offset="0.7586" style="stop-color:#C0C2C5"/>
				<stop  offset="0.8238" style="stop-color:#9CA0A4"/>
				<stop  offset="0.8889" style="stop-color:#70767C"/>
				<stop  offset="0.9527" style="stop-color:#3D454D"/>
				<stop  offset="1" style="stop-color:#121C26"/>
			</linearGradient>
			<polygon class="st2" points="-0.92,688.16 -4.5,696.06 704,1000 			"/>
		</g>
		<g>
			<linearGradient id="SVGID_4_" gradientUnits="userSpaceOnUse" x1="1060.8855" y1="236.015" x2="1229.8214" y2="-54.5546">
				<stop  offset="0" style="stop-color:#414141"/>
				<stop  offset="1" style="stop-color:#010101"/>
			</linearGradient>
			<polygon class="st3" points="1397.28,237.24 1397.28,0 861,0 			"/>
			
				<linearGradient id="SVGID_5_" gradientUnits="userSpaceOnUse" x1="-427.9077" y1="1571.3282" x2="-667.4342" y2="1467.6526" gradientTransform="matrix(-1 0 0 -1 699.5 1688.1606)">
				<stop  offset="0" style="stop-color:#121C26"/>
				<stop  offset="0.048" style="stop-color:#3F474F"/>
				<stop  offset="0.1099" style="stop-color:#71777D"/>
				<stop  offset="0.173" style="stop-color:#9DA1A5"/>
				<stop  offset="0.2364" style="stop-color:#C0C3C5"/>
				<stop  offset="0.3001" style="stop-color:#DCDDDF"/>
				<stop  offset="0.3641" style="stop-color:#EFF0F1"/>
				<stop  offset="0.4288" style="stop-color:#FBFBFB"/>
				<stop  offset="0.4951" style="stop-color:#FFFFFF"/>
				<stop  offset="0.5619" style="stop-color:#FBFBFB"/>
				<stop  offset="0.6278" style="stop-color:#EFF0F1"/>
				<stop  offset="0.6933" style="stop-color:#DBDDDE"/>
				<stop  offset="0.7586" style="stop-color:#C0C2C5"/>
				<stop  offset="0.8238" style="stop-color:#9CA0A4"/>
				<stop  offset="0.8889" style="stop-color:#70767C"/>
				<stop  offset="0.9527" style="stop-color:#3D454D"/>
				<stop  offset="1" style="stop-color:#121C26"/>
			</linearGradient>
			<polygon class="st4" points="1397.28,237.24 1400,231.23 861,0 			"/>
		</g>
		<g>
			<linearGradient id="SVGID_6_" gradientUnits="userSpaceOnUse" x1="782.4276" y1="894.9886" x2="740.8888" y2="757.1552">
				<stop  offset="0" style="stop-color:#010101"/>
				<stop  offset="1" style="stop-color:#414141"/>
			</linearGradient>
			<polygon class="st5" points="1400,458 64.81,1000 1400,1000 			"/>
			<linearGradient id="SVGID_7_" gradientUnits="userSpaceOnUse" x1="493.5416" y1="831.4638" x2="1199.2279" y2="544.678">
				<stop  offset="0" style="stop-color:#121C26"/>
				<stop  offset="0.0473" style="stop-color:#3D454D"/>
				<stop  offset="0.1111" style="stop-color:#70767C"/>
				<stop  offset="0.1762" style="stop-color:#9CA0A4"/>
				<stop  offset="0.2414" style="stop-color:#C0C2C5"/>
				<stop  offset="0.3067" style="stop-color:#DBDDDE"/>
				<stop  offset="0.3722" style="stop-color:#EFF0F1"/>
				<stop  offset="0.4381" style="stop-color:#FBFBFB"/>
				<stop  offset="0.5049" style="stop-color:#FFFFFF"/>
				<stop  offset="0.5712" style="stop-color:#FBFBFB"/>
				<stop  offset="0.6359" style="stop-color:#EFF0F1"/>
				<stop  offset="0.6999" style="stop-color:#DCDDDF"/>
				<stop  offset="0.7636" style="stop-color:#C0C3C5"/>
				<stop  offset="0.827" style="stop-color:#9DA1A5"/>
				<stop  offset="0.8901" style="stop-color:#71777D"/>
				<stop  offset="0.952" style="stop-color:#3F474F"/>
				<stop  offset="1" style="stop-color:#121C26"/>
			</linearGradient>
			<polygon class="st6" points="64.81,1000 1400,468.78 1400,458 			"/>
			<linearGradient id="SVGID_8_" gradientUnits="userSpaceOnUse" x1="781.6584" y1="1078.439" x2="746.5142" y2="915.9945">
				<stop  offset="0" style="stop-color:#010101"/>
				<stop  offset="1" style="stop-color:#414141"/>
			</linearGradient>
			<polygon class="st7" points="1400,701.55 64.81,1000 1400,1000 			"/>
			<linearGradient id="SVGID_9_" gradientUnits="userSpaceOnUse" x1="429.0444" y1="928.5016" x2="1245.9005" y2="738.3853">
				<stop  offset="0" style="stop-color:#121C26"/>
				<stop  offset="0.0473" style="stop-color:#3D454D"/>
				<stop  offset="0.1111" style="stop-color:#70767C"/>
				<stop  offset="0.1762" style="stop-color:#9CA0A4"/>
				<stop  offset="0.2414" style="stop-color:#C0C2C5"/>
				<stop  offset="0.3067" style="stop-color:#DBDDDE"/>
				<stop  offset="0.3722" style="stop-color:#EFF0F1"/>
				<stop  offset="0.4381" style="stop-color:#FBFBFB"/>
				<stop  offset="0.5049" style="stop-color:#FFFFFF"/>
				<stop  offset="0.5712" style="stop-color:#FBFBFB"/>
				<stop  offset="0.6359" style="stop-color:#EFF0F1"/>
				<stop  offset="0.6999" style="stop-color:#DCDDDF"/>
				<stop  offset="0.7636" style="stop-color:#C0C3C5"/>
				<stop  offset="0.827" style="stop-color:#9DA1A5"/>
				<stop  offset="0.8901" style="stop-color:#71777D"/>
				<stop  offset="0.952" style="stop-color:#3F474F"/>
				<stop  offset="1" style="stop-color:#121C26"/>
			</linearGradient>
			<polygon class="st8" points="64.81,1000 1400,715.79 1400,701.55 			"/>
			<g class="st9">
				<path d="M1352.48,673.7c0.14-5.44,4.57-9.58,10.03-9.38c5.3,0.19,9.45,4.61,9.3,9.91c-0.14,5.36-4.7,9.62-10.07,9.42
					C1356.47,683.45,1352.34,679.03,1352.48,673.7z"/>
				<path d="M1339.77,715.04c-5.44-0.14-9.57-4.57-9.37-10.04c0.2-5.3,4.62-9.44,9.92-9.29c5.36,0.15,9.61,4.71,9.41,10.08
					C1349.53,711.07,1345.1,715.18,1339.77,715.04z"/>
				<path d="M1340.33,651.89c0,5.32-4.25,9.63-9.54,9.68c-5.37,0.05-9.8-4.32-9.8-9.69c0-5.38,4.4-9.71,9.81-9.65
					C1336.15,642.3,1340.33,646.53,1340.33,651.89z"/>
				<path d="M1396.96,504.36c-0.16,5.3-4.55,9.48-9.85,9.37c-5.36-0.11-9.65-4.63-9.49-10c0.16-5.38,4.69-9.55,10.12-9.32
					C1393.08,494.63,1397.13,499,1396.96,504.36z"/>
				<path d="M1361.04,499.2c5.3,0.18,9.46,4.58,9.33,9.88c-0.13,5.36-4.67,9.63-10.04,9.45c-5.37-0.18-9.53-4.72-9.28-10.16
					C1351.28,503.04,1355.67,499.02,1361.04,499.2z"/>
				<path d="M1333.8,523.05c-5.45,0-9.71-4.32-9.65-9.77c0.06-5.31,4.36-9.57,9.65-9.57c5.37,0.01,9.74,4.43,9.69,9.81
					C1343.44,518.8,1339.12,523.05,1333.8,523.05z"/>
				<path d="M1316.8,518.51c-0.16,5.44-4.61,9.55-10.08,9.32c-5.3-0.22-9.42-4.66-9.25-9.96c0.17-5.35,4.76-9.59,10.12-9.37
					C1312.87,508.74,1316.96,513.18,1316.8,518.51z"/>
				<path d="M1347.67,647.07c0.01-5.45,4.33-9.71,9.78-9.64c5.31,0.07,9.57,4.37,9.56,9.66c-0.01,5.37-4.44,9.74-9.82,9.68
					C1351.91,656.71,1347.67,652.39,1347.67,647.07z"/>
				<path d="M1393.89,642.45c0.04,5.29-4.19,9.62-9.5,9.71c-5.45,0.1-9.8-4.14-9.83-9.59c-0.03-5.32,4.18-9.66,9.47-9.75
					C1389.4,632.74,1393.85,637.08,1393.89,642.45z"/>
				<path d="M1374.88,535.79c-0.16,5.44-4.61,9.55-10.08,9.32c-5.3-0.22-9.42-4.66-9.25-9.96c0.17-5.35,4.76-9.59,10.12-9.37
					C1370.95,526.02,1375.04,530.46,1374.88,535.79z"/>
				<path d="M1338.63,549.93c-5.45,0.01-9.72-4.29-9.68-9.74c0.04-5.31,4.33-9.59,9.62-9.59c5.37-0.01,9.76,4.4,9.72,9.78
					C1348.25,545.65,1343.95,549.91,1338.63,549.93z"/>
				<path d="M1325.87,634.89c-5.32,0-9.63-4.25-9.68-9.54c-0.05-5.37,4.32-9.8,9.7-9.8c5.39,0,9.71,4.4,9.64,9.81
					C1335.46,630.72,1331.22,634.89,1325.87,634.89z"/>
				<path d="M1312.08,535.2c5.3,0.18,9.46,4.58,9.33,9.88c-0.13,5.36-4.67,9.63-10.04,9.45c-5.37-0.18-9.53-4.72-9.28-10.16
					C1302.32,539.04,1306.71,535.02,1312.08,535.2z"/>
				<path d="M1294.73,549.74c-0.05,5.31-4.33,9.59-9.62,9.59c-5.37,0.01-9.76-4.41-9.71-9.78c0.04-5.38,4.48-9.67,9.9-9.56
					C1290.63,540.11,1294.77,544.37,1294.73,549.74z"/>
				<path d="M1362.41,620.43c0,5.45-4.31,9.71-9.77,9.65c-5.31-0.06-9.57-4.36-9.57-9.65c0.01-5.37,4.43-9.74,9.8-9.69
					C1358.16,610.8,1362.41,615.11,1362.41,620.43z"/>
				<path d="M1369.75,615.63c0-5.32,4.25-9.63,9.54-9.68c5.37-0.05,9.8,4.32,9.8,9.69c0,5.38-4.4,9.71-9.81,9.65
					C1373.93,625.22,1369.75,620.99,1369.75,615.63z"/>
				<path d="M1398.41,669.18c-0.01,5.32-4.26,9.62-9.55,9.67c-5.37,0.05-9.79-4.33-9.79-9.71c0-5.38,4.41-9.7,9.82-9.63
					C1394.24,659.59,1398.41,663.82,1398.41,669.18z"/>
				<path d="M1370.01,552.47c5.45-0.01,9.72,4.3,9.67,9.75c-0.05,5.31-4.34,9.58-9.63,9.59c-5.37,0-9.75-4.41-9.71-9.79
					C1360.39,556.74,1364.7,552.48,1370.01,552.47z"/>
				<path d="M1335.51,688.17c-5.32,0.02-9.65-4.22-9.72-9.5c-0.07-5.37,4.28-9.81,9.65-9.84c5.39-0.02,9.73,4.36,9.68,9.77
					C1345.08,683.95,1340.86,688.15,1335.51,688.17z"/>
				<path d="M1333.76,566.63c0.15-5.44,4.59-9.56,10.06-9.35c5.3,0.21,9.43,4.64,9.27,9.94c-0.16,5.35-4.74,9.6-10.1,9.39
					C1337.71,576.39,1333.61,571.96,1333.76,566.63z"/>
				<path d="M1321.32,608.01c-5.45,0-9.71-4.32-9.65-9.77c0.06-5.31,4.36-9.57,9.65-9.57c5.37,0.01,9.74,4.43,9.69,9.81
					C1330.96,603.76,1326.64,608.01,1321.32,608.01z"/>
				<path d="M1316.59,562.07c5.31,0.03,9.6,4.31,9.62,9.59c0.02,5.37-4.38,9.77-9.75,9.74c-5.38-0.03-9.68-4.45-9.58-9.87
					C1306.97,566.19,1311.23,562.04,1316.59,562.07z"/>
				<path d="M1357.6,594.16c-0.18,5.3-4.58,9.46-9.88,9.33c-5.36-0.13-9.63-4.66-9.45-10.04c0.18-5.37,4.72-9.53,10.15-9.29
					C1353.75,584.4,1357.78,588.79,1357.6,594.16z"/>
				<path d="M1384.49,588.93c0.04,5.32-4.17,9.67-9.45,9.76c-5.38,0.1-9.84-4.24-9.88-9.61c-0.05-5.39,4.32-9.75,9.73-9.73
					C1380.23,579.38,1384.45,583.58,1384.49,588.93z"/>
				<path d="M1357.27,700.68c-0.04-4.45,2.8-8.2,7.11-9.4c4.14-1.15,8.54,0.59,10.8,4.26c2.31,3.76,1.84,8.6-1.29,11.71
					c-0.8,0.8-1.96,1.3-3.03,1.76c-0.79,0.34-1.74,0.29-2.56,0.58c-2.76,0.98-5.18,0.38-7.39-1.4
					C1358.53,706.25,1357.31,703.75,1357.27,700.68z"/>
				<path d="M1294.39,612.75c-5.36-0.02-9.54-4.22-9.54-9.59c0-5.33,4.24-9.62,9.53-9.66c5.33-0.04,9.79,4.44,9.72,9.77
					C1304.03,608.56,1299.72,612.77,1294.39,612.75z"/>
				<path d="M1299.47,576.21c0.03,5.38-4.12,9.61-9.47,9.66c-5.43,0.05-9.81-4.27-9.78-9.65c0.04-5.25,4.4-9.59,9.65-9.6
					C1295.16,566.62,1299.44,570.89,1299.47,576.21z"/>
				<path d="M1294.45,656.61c0.03-5.36,4.24-9.53,9.61-9.52c5.32,0.01,9.61,4.26,9.64,9.55c0.02,5.34-4.46,9.78-9.79,9.7
					C1298.61,666.26,1294.42,661.94,1294.45,656.61z"/>
				<path d="M1318.19,683.43c-0.05,5.35-4.28,9.5-9.65,9.48c-5.32-0.03-9.6-4.3-9.6-9.59c0-5.34,4.5-9.76,9.83-9.66
					C1314.07,673.77,1318.24,678.09,1318.19,683.43z"/>
				<path d="M1289.65,629.76c0.02-5.36,4.22-9.54,9.58-9.55c5.33,0,9.62,4.23,9.67,9.52c0.04,5.33-4.43,9.79-9.76,9.73
					C1293.84,639.4,1289.63,635.09,1289.65,629.76z"/>
				<path d="M1401.04,530.46c0,0.4,0,0.8,0,1.2c0,4.22-2.1,7.07-6.11,8.29c-4.63,1.41-9.59-0.83-11.6-5.24
					c-2.05-4.49-0.42-9.78,3.8-12.32c4.14-2.5,9.44-1.5,12.55,2.2C1401.19,526.37,1401.1,528.39,1401.04,530.46z"/>
				<path d="M1322.95,709.92c0.02,5.32-4.22,9.63-9.51,9.67c-5.2,0.04-9.64-4.36-9.67-9.57c-0.03-5.27,4.27-9.58,9.57-9.6
					C1318.71,700.39,1322.93,704.57,1322.95,709.92z"/>
				<path d="M1263.08,590.63c-5.33,0.03-9.64-4.18-9.7-9.47c-0.06-5.19,4.31-9.65,9.54-9.7c5.26-0.06,9.6,4.23,9.64,9.53
					C1272.59,586.35,1268.42,590.6,1263.08,590.63z"/>
				<path d="M1248.89,554.39c0.02-5.34,4.25-9.52,9.61-9.5c5.3,0.02,9.6,4.34,9.57,9.61c-0.04,5.22-4.47,9.61-9.67,9.57
					C1253.1,564.02,1248.87,559.71,1248.89,554.39z"/>
				<path d="M1277.12,670.76c-5.24-0.01-9.44-4.19-9.48-9.43c-0.03-5.33,4.27-9.67,9.55-9.65c5.17,0.03,9.47,4.31,9.53,9.48
					C1286.79,666.43,1282.45,670.77,1277.12,670.76z"/>
				<path d="M1286.58,705.24c5.24,0.02,9.43,4.21,9.46,9.46c0.02,5.33-4.29,9.67-9.58,9.63c-5.17-0.04-9.46-4.33-9.51-9.51
					C1276.91,709.54,1281.25,705.22,1286.58,705.24z"/>
				<path d="M1272.45,688.13c-0.01-5.32,4.35-9.66,9.62-9.58c5.18,0.08,9.45,4.39,9.46,9.55c0.01,5.29-4.34,9.57-9.67,9.53
					C1276.62,697.59,1272.45,693.38,1272.45,688.13z"/>
				<path d="M1277.32,607.66c0.02,5.33-4.29,9.67-9.58,9.63c-5.17-0.04-9.46-4.33-9.51-9.51c-0.04-5.28,4.3-9.6,9.63-9.58
					C1273.1,598.23,1277.29,602.42,1277.32,607.66z"/>
				<path d="M1272.6,625.09c5.25,0,9.47,4.16,9.52,9.39c0.05,5.34-4.21,9.68-9.51,9.69c-5.25,0.01-9.66-4.46-9.57-9.68
					C1263.12,629.26,1267.37,625.09,1272.6,625.09z"/>
				<path d="M1236.42,576.39c5.22,0.03,9.44,4.28,9.43,9.49c0,5.31-4.35,9.57-9.67,9.48c-5.2-0.08-9.35-4.36-9.3-9.6
					C1226.93,580.56,1231.21,576.36,1236.42,576.39z"/>
				<path d="M1240.92,603.04c5.22,0,9.45,4.2,9.48,9.42c0.03,5.31-4.31,9.63-9.6,9.55c-5.22-0.08-9.42-4.35-9.37-9.55
					C1231.48,607.24,1235.71,603.04,1240.92,603.04z"/>
				<path d="M1231.51,568.48c-5.22-0.02-9.42-4.25-9.43-9.47c-0.01-5.21,4.19-9.45,9.41-9.5c5.29-0.06,9.64,4.32,9.56,9.6
					C1240.97,564.34,1236.73,568.5,1231.51,568.48z"/>
				<path d="M1245.63,692.42c0.14-5.17,4.52-9.32,9.7-9.19c5.2,0.14,9.27,4.46,9.15,9.7c-0.12,5.24-4.39,9.28-9.67,9.15
					C1249.6,701.94,1245.5,697.63,1245.63,692.42z"/>
				<path d="M1259.97,666.05c0,5.18-4.27,9.45-9.45,9.44c-5.21,0-9.4-4.21-9.41-9.45c-0.01-5.26,4.15-9.41,9.41-9.41
					C1255.76,656.64,1259.97,660.84,1259.97,666.05z"/>
				<path d="M1245.7,629.75c5.24,0,9.46,4.18,9.47,9.39c0.01,5.18-4.24,9.46-9.43,9.47c-5.21,0.01-9.41-4.19-9.43-9.43
					C1236.29,633.93,1240.44,629.76,1245.7,629.75z"/>
				<path d="M1259.54,728.96c-5.22-0.18-9.29-4.52-9.11-9.74c0.18-5.17,4.6-9.28,9.78-9.11c5.19,0.18,9.23,4.54,9.07,9.78
					C1269.12,725.13,1264.82,729.14,1259.54,728.96z"/>
				<path d="M1218.83,590.53c-0.04,5.2-4.12,9.25-9.33,9.26c-5.26,0.01-9.5-4.24-9.44-9.45c0.06-5.09,4.3-9.3,9.39-9.32
					C1214.66,581,1218.86,585.26,1218.83,590.53z"/>
				<path d="M1195.57,563.88c-0.03-5.22,3.97-9.35,9.16-9.43c5.28-0.08,9.57,4.06,9.61,9.28c0.04,5.17-4.28,9.51-9.46,9.49
					C1199.76,573.19,1195.61,569.03,1195.57,563.88z"/>
				<path d="M1214.39,626.67c-5.27,0.05-9.54-4.14-9.53-9.36c0.01-5.09,4.2-9.33,9.3-9.41c5.21-0.08,9.47,4.16,9.47,9.42
					C1223.63,622.53,1219.59,626.62,1214.39,626.67z"/>
				<path d="M1223.93,724.16c-0.01-5.19,4.04-9.31,9.22-9.34c5.25-0.04,9.54,4.22,9.47,9.4c-0.07,5.08-4.34,9.3-9.4,9.29
					C1228.11,733.49,1223.95,729.3,1223.93,724.16z"/>
				<path d="M1228.37,706.79c-5.18-0.03-9.24-4.13-9.24-9.32c0.01-5.14,4.15-9.33,9.26-9.36c5.15-0.03,9.51,4.38,9.42,9.51
					C1237.73,702.73,1233.53,706.82,1228.37,706.79z"/>
				<path d="M1223.66,679.91c-5.19,0.01-9.29-4.06-9.32-9.24c-0.03-5.25,4.24-9.53,9.42-9.45c5.08,0.08,9.3,4.37,9.27,9.42
					C1232.99,675.75,1228.8,679.9,1223.66,679.91z"/>
				<path d="M1228.39,643.95c0,5.15-4.12,9.34-9.24,9.39c-5.14,0.05-9.52-4.35-9.45-9.48c0.07-5.12,4.27-9.22,9.42-9.2
					C1224.31,634.67,1228.38,638.76,1228.39,643.95z"/>
				<path d="M1187.73,612.61c5.12,0.04,9.3,4.28,9.23,9.36c-0.07,5.1-4.35,9.29-9.41,9.23c-5.12-0.06-9.22-4.26-9.18-9.41
					C1178.41,616.64,1182.56,612.57,1187.73,612.61z"/>
				<path d="M1201.47,648.82c-0.02,5.13-4.24,9.31-9.33,9.26c-5.1-0.05-9.3-4.3-9.27-9.38c0.04-5.12,4.23-9.24,9.37-9.22
					C1197.41,639.51,1201.49,643.65,1201.47,648.82z"/>
				<path d="M1177.91,577.63c-5.14-0.06-9.2-4.23-9.14-9.4c0.05-5.12,4.33-9.29,9.4-9.19c5.11,0.1,9.28,4.4,9.19,9.45
					C1187.27,573.62,1183.06,577.69,1177.91,577.63z"/>
				<path d="M1182.87,604.51c-5.16,0.01-9.29-4.08-9.31-9.24c-0.02-5.14,4.13-9.33,9.24-9.35c5.08-0.02,9.32,4.19,9.35,9.29
					C1192.19,600.3,1188,604.5,1182.87,604.51z"/>
				<path d="M1210.8,702.34c-0.03,5.13-4.21,9.24-9.35,9.18c-5.11-0.06-9.2-4.27-9.12-9.41c0.08-5.02,4.2-9.07,9.23-9.07
					C1206.68,693.04,1210.83,697.21,1210.8,702.34z"/>
				<path d="M1206.24,675.34c0.03,5.13-4.11,9.3-9.23,9.3c-5.13,0-9.29-4.17-9.25-9.29c0.04-5.05,4.07-9.1,9.12-9.19
					C1201.99,666.08,1206.21,670.22,1206.24,675.34z"/>
				<path d="M1206.24,738.16c-5.14-0.07-9.21-4.27-9.12-9.41c0.08-5.11,4.33-9.17,9.47-9.06c5.01,0.11,9.05,4.27,9.01,9.29
					C1215.56,734.11,1211.37,738.23,1206.24,738.16z"/>
				<path d="M1169.92,626.6c0.03,5.12-3.92,9.16-9.03,9.23c-5.18,0.07-9.36-4.06-9.33-9.21c0.03-5.02,4.17-9.14,9.19-9.15
					C1165.8,617.47,1169.88,621.53,1169.92,626.6z"/>
				<path d="M1170.39,671.05c5.06,0.12,9.05,4.31,8.94,9.36c-0.11,5.02-4.32,9.07-9.34,9c-5.15-0.07-9.17-4.33-9.01-9.52
					C1161.13,674.79,1165.25,670.92,1170.39,671.05z"/>
				<path d="M1165.41,599.88c-0.05,5.05-4.15,9.09-9.23,9.07c-5.21-0.02-9.23-4.15-9.13-9.37c0.1-5.06,4.26-9.07,9.31-8.99
					C1161.38,590.68,1165.45,594.86,1165.41,599.88z"/>
				<path d="M1156.35,653.23c0.05-5.05,4.16-9.09,9.24-9.07c5.21,0.02,9.23,4.15,9.13,9.37c-0.1,5.06-4.26,9.07-9.31,8.99
					C1160.38,662.44,1156.31,658.25,1156.35,653.23z"/>
				<path d="M1179.64,742.82c-5.11-0.04-9.05-4.05-9.02-9.19c0.03-5.05,4.16-9.14,9.19-9.08c5,0.06,9.13,4.27,9.08,9.25
					C1188.84,738.84,1184.71,742.86,1179.64,742.82z"/>
				<path d="M1174.81,715.94c-5.11-0.05-9.03-4.07-8.99-9.22c0.04-5.05,4.19-9.13,9.21-9.05c5,0.07,9.12,4.3,9.05,9.28
					C1184.02,711.99,1179.89,715.99,1174.81,715.94z"/>
				<path d="M1125.06,631.12c0.05-5.08,4.13-9.01,9.25-8.93c4.93,0.08,8.94,4.15,8.94,9.07c0,4.96-4.25,9.17-9.19,9.12
					C1129.03,640.32,1125.01,636.18,1125.06,631.12z"/>
				<path d="M1129.35,613.66c-5.1,0.01-9.1-4-9.09-9.09c0.01-5.05,4.16-9.16,9.15-9.09c4.89,0.06,8.97,4.15,9.03,9.04
					C1138.51,609.51,1134.4,613.65,1129.35,613.66z"/>
				<path d="M1147.74,658.16c-0.02,5.04-4.17,9.16-9.16,9.08c-4.89-0.07-8.97-4.16-9.02-9.05c-0.05-5,4.06-9.13,9.11-9.14
					C1143.76,649.05,1147.76,653.06,1147.74,658.16z"/>
				<path d="M1152.54,684.85c-0.04,5.08-4.1,9.03-9.21,8.97c-4.93-0.06-8.95-4.1-8.98-9.03c-0.02-4.95,4.21-9.18,9.16-9.16
					C1148.53,675.66,1152.58,679.79,1152.54,684.85z"/>
				<path d="M1157.34,711.64c0,5.09-4.02,9.09-9.12,9.06c-5.04-0.03-9.15-4.19-9.07-9.18c0.08-4.89,4.18-8.96,9.07-9.01
					C1153.22,702.47,1157.34,706.59,1157.34,711.64z"/>
				<path d="M1401.03,702.21c-3.77,0.87-7.24,1.72-10.74,2.44c-0.61,0.12-1.44-0.15-1.98-0.51c-3.17-2.13-4.74-5.18-4.37-8.98
					c0.38-3.88,2.47-6.73,6.16-8.11c3.56-1.34,6.92-0.78,9.82,1.75c0.54,0.47,1.05,1.3,1.07,1.98
					C1401.09,694.51,1401.03,698.25,1401.03,702.21z"/>
				<path d="M1143.82,738.21c0.03-4.98,4.04-8.96,9.03-8.96c4.97,0,9.01,4,9.06,8.97c0.05,4.99-4.21,9.22-9.19,9.12
					C1147.74,747.24,1143.79,743.2,1143.82,738.21z"/>
				<path d="M1111.7,609.46c-0.02,4.98-4.03,8.97-9.02,8.96c-4.97,0-9.01-4-9.07-8.96c-0.05-4.99,4.21-9.22,9.18-9.12
					C1107.78,600.43,1111.73,604.48,1111.7,609.46z"/>
				<path d="M1116.78,680.59c4.98-0.04,9.01,3.94,9.03,8.92c0.02,4.98-3.95,9.02-8.92,9.04c-4.95,0.03-9.02-3.99-9.04-8.93
					C1107.82,684.64,1111.8,680.63,1116.78,680.59z"/>
				<path d="M1116.21,636.16c-0.07,4.98-4.13,8.93-9.1,8.85c-4.99-0.08-8.92-4.12-8.86-9.1c0.06-4.94,4.16-8.92,9.12-8.86
					C1112.32,627.11,1116.28,631.19,1116.21,636.16z"/>
				<path d="M1112.33,653.93c4.94,0.14,8.84,4.32,8.68,9.28c-0.17,4.99-4.3,8.85-9.27,8.67c-5-0.18-8.84-4.27-8.69-9.26
					C1103.2,657.69,1107.37,653.79,1112.33,653.93z"/>
				<path d="M1135.19,743.06c0.01,4.97-3.98,8.98-8.97,8.99c-4.98,0.02-8.99-3.98-8.99-8.96c0-4.99,3.99-9,8.96-9.01
					C1131.14,734.08,1135.18,738.11,1135.19,743.06z"/>
				<path d="M1121.33,725.17c-4.98-0.03-8.95-4.07-8.9-9.05c0.05-4.99,4.07-8.95,9.05-8.92c4.95,0.04,8.95,4.1,8.92,9.06
					C1130.36,721.23,1126.31,725.21,1121.33,725.17z"/>
				<path d="M1089.56,640.77c0.04,4.96-3.96,8.96-8.95,8.97c-4.93,0.01-8.83-3.81-8.91-8.72c-0.08-5.01,3.82-9.06,8.78-9.14
					C1085.39,631.81,1089.52,635.85,1089.56,640.77z"/>
				<path d="M1084.76,614.03c-0.04,4.96-4.08,8.89-9.08,8.83c-5.01-0.06-8.87-4.05-8.77-9.09c0.09-4.88,4.04-8.77,8.91-8.76
					C1080.73,605.01,1084.79,609.11,1084.76,614.03z"/>
				<path d="M1103.6,720.97c0.02,4.96-3.82,8.85-8.76,8.88c-5.02,0.03-9.07-3.98-9.01-8.94c0.06-4.83,4.12-8.84,8.94-8.83
					C1099.66,712.1,1103.59,716.05,1103.6,720.97z"/>
				<path d="M1076.56,667.51c-0.02-4.95,3.83-8.84,8.76-8.87c5.02-0.03,9.07,3.99,9,8.94c-0.06,4.83-4.13,8.84-8.95,8.82
					C1080.49,676.38,1076.57,672.42,1076.56,667.51z"/>
				<path d="M1090.48,747.59c0.02-4.94,3.89-8.8,8.84-8.8c4.92,0,8.88,3.9,8.92,8.78c0.04,4.9-4.12,9.05-9.03,8.98
					C1094.33,756.49,1090.46,752.52,1090.48,747.59z"/>
				<path d="M1098.8,694.41c-0.02,4.91-3.97,8.86-8.84,8.86c-4.82,0-8.88-4.01-8.92-8.85c-0.05-4.96,4-8.96,9.02-8.92
					C1095,685.56,1098.83,689.46,1098.8,694.41z"/>
				<path d="M1062.77,645.3c0.04,4.9-3.84,8.9-8.71,8.97c-4.8,0.07-8.89-3.93-8.97-8.77c-0.08-4.83,3.9-8.87,8.77-8.91
					C1058.79,636.55,1062.72,640.39,1062.77,645.3z"/>
				<path d="M1057.97,618.83c-0.03,4.91-3.95,8.77-8.88,8.74c-4.87-0.03-8.86-4.05-8.8-8.88c0.06-4.83,4.14-8.84,8.94-8.8
					C1054.09,609.94,1058,613.94,1057.97,618.83z"/>
				<path d="M1081.45,752.47c-0.01,4.86-4.03,8.83-8.87,8.76c-4.78-0.07-8.64-3.94-8.7-8.72c-0.06-4.84,3.91-8.84,8.78-8.85
					C1077.55,743.66,1081.47,747.58,1081.45,752.47z"/>
				<path d="M1067.77,734.57c-4.86-0.05-8.81-4.11-8.69-8.94c0.12-4.79,4.02-8.62,8.78-8.63c4.85-0.01,8.81,3.97,8.78,8.85
					C1076.63,730.73,1072.67,734.62,1067.77,734.57z"/>
				<path d="M1049.75,672.23c0.02-4.88,3.98-8.77,8.87-8.73c4.77,0.04,8.64,3.92,8.69,8.7c0.05,4.84-3.93,8.86-8.78,8.87
					C1053.68,681.09,1049.73,677.11,1049.75,672.23z"/>
				<path d="M1063.27,707.69c-4.88-0.02-8.77-3.98-8.72-8.88c0.05-4.77,3.93-8.64,8.7-8.69c4.84-0.05,8.86,3.93,8.87,8.79
					C1072.13,703.76,1068.14,707.72,1063.27,707.69z"/>
				<path d="M1270.6,521.15c0.81-0.38,1.44-0.71,2.1-0.97c3.85-1.53,7.7-3.06,11.56-4.57c1.86-0.73,2.01-0.68,3.28,0.75
					c2.74,3.08,3.17,7.81,1.03,11.38c-2.16,3.61-6.47,5.43-10.51,4.42c-4.25-1.06-7.26-4.62-7.47-8.88
					C1270.57,522.58,1270.6,521.87,1270.6,521.15z"/>
				<path d="M1031.81,668.14c4.81-0.04,8.74,3.78,8.81,8.57c0.07,4.88-3.9,8.89-8.78,8.87c-4.79-0.02-8.66-3.91-8.66-8.72
					C1023.18,672.01,1026.96,668.18,1031.81,668.14z"/>
				<path d="M1026.98,658.9c-4.85-0.06-8.62-3.9-8.6-8.75c0.02-4.9,4.04-8.81,8.93-8.68c4.77,0.12,8.59,4.12,8.5,8.9
					C1035.73,655.15,1031.79,658.96,1026.98,658.9z"/>
				<path d="M1054.67,757.39c-0.06,4.84-3.91,8.55-8.79,8.48c-4.8-0.07-8.64-4.02-8.54-8.79c0.1-4.75,4.12-8.63,8.85-8.54
					C1050.98,748.63,1054.74,752.55,1054.67,757.39z"/>
				<path d="M1049.87,730.27c0.04,4.88-3.69,8.69-8.55,8.73c-4.83,0.04-8.74-3.77-8.79-8.55c-0.05-4.74,3.86-8.73,8.61-8.79
					C1045.92,721.6,1049.83,725.46,1049.87,730.27z"/>
				<path d="M1036.48,695.09c4.86,0.02,8.62,3.81,8.59,8.68c-0.02,4.81-3.9,8.69-8.68,8.65c-4.75-0.03-8.68-4-8.66-8.74
					C1027.76,698.9,1031.66,695.07,1036.48,695.09z"/>
				<path d="M1004.92,673.05c4.83-0.03,8.77,3.85,8.74,8.63c-0.03,4.64-3.93,8.56-8.58,8.62c-4.77,0.06-8.69-3.87-8.67-8.7
					C996.43,676.84,1000.16,673.08,1004.92,673.05z"/>
				<path d="M1000.42,663.59c-4.73-0.01-8.57-3.78-8.64-8.49c-0.08-4.7,3.96-8.78,8.68-8.76c4.79,0.01,8.63,3.95,8.58,8.79
					C1008.97,659.88,1005.19,663.6,1000.42,663.59z"/>
				<path d="M1009.71,716.87c-4.85-0.04-8.59-3.92-8.49-8.81c0.09-4.7,4.01-8.51,8.69-8.44c4.65,0.07,8.55,4,8.56,8.64
					C1018.48,713.04,1014.54,716.91,1009.71,716.87z"/>
				<path d="M1019.11,753.25c4.74-0.02,8.56,3.72,8.6,8.44c0.05,4.82-3.84,8.75-8.62,8.71c-4.67-0.05-8.54-3.95-8.53-8.61
					C1010.57,757.1,1014.4,753.27,1019.11,753.25z"/>
				<path d="M1014.61,743.71c-4.74,0-8.53-3.76-8.56-8.49c-0.03-4.82,3.9-8.74,8.67-8.66c4.67,0.08,8.53,4.01,8.48,8.65
					C1023.15,739.92,1019.32,743.71,1014.61,743.71z"/>
				<path d="M1400.93,549.03c0,5.74,0,11.4,0,17c-3.91,2.15-8.65,1.24-11.58-2.14c-2.96-3.42-3.11-8.58-0.38-12.2
					C1391.89,547.84,1397.45,546.81,1400.93,549.03z"/>
				<path d="M979.2,739.75c-0.02-4.7,3.78-8.53,8.48-8.55c4.71-0.02,8.51,3.76,8.55,8.48c0.03,4.7-3.77,8.53-8.48,8.54
					C983.04,748.24,979.22,744.46,979.2,739.75z"/>
				<path d="M982.88,721.6c-4.7-0.02-8.49-3.85-8.48-8.55c0.02-4.7,3.83-8.49,8.55-8.48c4.71,0.01,8.51,3.84,8.48,8.54
					C991.4,717.84,987.59,721.61,982.88,721.6z"/>
				<path d="M973.48,651.04c4.7-0.04,8.55,3.74,8.59,8.43c0.04,4.71-3.71,8.53-8.43,8.59c-4.7,0.06-8.55-3.72-8.59-8.43
					C965.01,654.92,968.78,651.08,973.48,651.04z"/>
				<path d="M986.88,686.49c-0.03,4.7-3.85,8.48-8.57,8.46c-4.71-0.03-8.5-3.86-8.46-8.56c0.05-4.72,3.86-8.49,8.57-8.46
					C983.11,677.95,986.9,681.79,986.88,686.49z"/>
				<path d="M1000.94,766.52c0.04,4.69-3.56,8.42-8.23,8.51c-4.76,0.09-8.63-3.64-8.67-8.35c-0.04-4.68,3.83-8.57,8.51-8.55
					C997.17,758.14,1000.9,761.87,1000.94,766.52z"/>
				<path d="M955.29,664.31c0.02,4.69-3.59,8.38-8.26,8.42c-4.75,0.04-8.6-3.76-8.55-8.44c0.05-4.57,3.89-8.37,8.45-8.37
					C951.52,655.92,955.26,659.68,955.29,664.31z"/>
				<path d="M960.95,752.88c-4.67-0.05-8.27-3.74-8.24-8.44c0.03-4.63,3.79-8.38,8.38-8.37c4.65,0.01,8.54,4,8.42,8.62
					C969.4,749.31,965.61,752.93,960.95,752.88z"/>
				<path d="M947.91,717.92c-0.02-4.69,3.6-8.37,8.27-8.41c4.74-0.04,8.6,3.78,8.54,8.45c-0.06,4.57-3.9,8.36-8.46,8.35
					C951.67,726.31,947.93,722.55,947.91,717.92z"/>
				<path d="M943.11,690.91c0.03-4.67,3.71-8.29,8.4-8.28c4.63,0.02,8.39,3.75,8.4,8.34c0.01,4.65-3.96,8.56-8.59,8.46
					C946.72,699.34,943.08,695.56,943.11,690.91z"/>
				<path d="M965.67,779.73c-4.64,0.01-8.44-3.77-8.41-8.36c0.03-4.57,3.93-8.42,8.48-8.35c4.53,0.06,8.2,3.76,8.23,8.3
					C974.01,776,970.33,779.72,965.67,779.73z"/>
				<path d="M924.83,687.51c4.63-0.01,8.35,3.75,8.3,8.39c-0.05,4.53-3.75,8.2-8.27,8.2c-4.61,0.01-8.39-3.82-8.32-8.42
					C916.6,691.15,920.29,687.52,924.83,687.51z"/>
				<path d="M934.09,757.61c-4.62-0.05-8.28-3.87-8.17-8.52c0.11-4.51,3.9-8.16,8.4-8.08c4.53,0.08,8.19,3.78,8.2,8.3
					C942.51,753.93,938.73,757.66,934.09,757.61z"/>
				<path d="M939.09,767.67c4.53,0.04,8.2,3.73,8.22,8.26c0.02,4.61-3.8,8.4-8.4,8.34c-4.63-0.06-8.3-3.87-8.2-8.52
					C930.81,771.23,934.54,767.63,939.09,767.67z"/>
				<path d="M937.93,722.55c-0.05,4.62-3.87,8.28-8.52,8.17c-4.51-0.11-8.15-3.89-8.08-8.4c0.08-4.53,3.78-8.19,8.3-8.2
					C934.25,714.12,937.98,717.91,937.93,722.55z"/>
				<path d="M928.34,669.5c-0.11,2.81-1.66,5.43-4.85,6.95c-3.03,1.45-6.72,0.84-9.13-1.5c-2.54-2.46-3.22-5.46-2.13-8.79
					c0.64-1.96,1.81-3.56,3.96-4.15c0.46-0.13,0.9-0.31,1.35-0.49C922.92,659.43,928.26,663.03,928.34,669.5z"/>
				<path d="M906.34,700.54c0.02,4.63-3.53,8.2-8.15,8.21c-4.57,0-8.25-3.67-8.21-8.21c0.04-4.4,3.69-8.08,8.09-8.15
					C902.6,692.31,906.32,695.98,906.34,700.54z"/>
				<path d="M912.18,788.9c-4.58,0.03-8.27-3.6-8.27-8.15c0-4.48,3.79-8.25,8.27-8.21c4.45,0.04,8.04,3.63,8.09,8.09
					C920.31,785.27,916.79,788.87,912.18,788.9z"/>
				<path d="M902.65,719.1c4.58-0.05,8.29,3.55,8.32,8.09c0.03,4.48-3.74,8.27-8.22,8.26c-4.44,0-8.07-3.58-8.14-8.04
					C894.55,722.78,898.05,719.15,902.65,719.1z"/>
				<path d="M907.67,762.02c-4.64,0.04-8.23-3.49-8.25-8.1c-0.02-4.58,3.63-8.26,8.17-8.25c4.39,0.01,8.09,3.64,8.19,8.05
					C915.87,758.23,912.22,761.98,907.67,762.02z"/>
				<path d="M1142.48,572.02c4.95-1.98,9.83-3.92,14.63-5.84c3.54,2.83,4.48,7.36,2.43,11.25c-2.09,3.97-6.75,5.86-11.02,4.46
					C1144.36,580.53,1141.91,576.63,1142.48,572.02z"/>
				<path d="M879.42,705.06c0.04,4.49-3.47,8.15-7.94,8.26c-4.44,0.12-8.34-3.71-8.32-8.18c0.01-4.44,3.66-8.07,8.12-8.08
					C875.8,697.05,879.38,700.56,879.42,705.06z"/>
				<path d="M877.42,785.37c-0.02-4.49,3.54-8.08,8.01-8.11c4.46-0.02,8.1,3.56,8.14,8.01c0.04,4.41-3.62,8.11-8.04,8.14
					C881.1,793.44,877.44,789.81,877.42,785.37z"/>
				<path d="M876.04,723.98c4.49-0.03,8.1,3.51,8.14,7.98c0.04,4.46-3.53,8.11-7.98,8.17c-4.4,0.06-8.12-3.59-8.17-8.02
					C867.98,727.69,871.6,724.01,876.04,723.98z"/>
				<path d="M880.59,766.74c-4.47-0.04-8.01-3.66-7.97-8.15c0.04-4.44,3.73-8.06,8.15-8c4.43,0.06,8.07,3.79,8,8.18
					C888.7,763.23,885.05,766.78,880.59,766.74z"/>
				<path d="M841.25,736.49c0.06-4.41,3.57-7.88,7.99-7.88c4.5,0.01,8.08,3.63,8.02,8.11c-0.06,4.45-3.79,8.02-8.25,7.9
					C844.64,744.5,841.2,740.89,841.25,736.49z"/>
				<path d="M852.67,709.88c0.05,4.42-3.38,7.97-7.79,8.07c-4.5,0.1-8.18-3.44-8.22-7.91c-0.04-4.36,3.46-7.99,7.82-8.09
					C848.95,701.83,852.62,705.38,852.67,709.88z"/>
				<path d="M858.84,798.04c-4.44,0-7.9-3.43-7.92-7.86c-0.02-4.41,3.43-7.97,7.8-8.04c4.41-0.07,8.13,3.63,8.1,8.04
					C866.79,794.54,863.25,798.03,858.84,798.04z"/>
				<path d="M854.15,755.56c4.39,0.05,7.9,3.61,7.87,7.97c-0.03,4.32-3.64,7.92-7.96,7.93c-4.45,0.01-8-3.63-7.93-8.14
					C846.19,758.9,849.7,755.51,854.15,755.56z"/>
				<path d="M825.67,714.52c0,4.4-3.58,7.99-7.93,7.94c-4.32-0.05-7.95-3.76-7.88-8.05c0.08-4.28,3.57-7.72,7.87-7.75
					C822.18,706.62,825.67,710.08,825.67,714.52z"/>
				<path d="M822.64,733.53c4.43,0.02,7.87,3.52,7.82,7.98c-0.05,4.29-3.52,7.78-7.8,7.83c-4.3,0.05-7.99-3.6-8.01-7.92
					C814.65,737.06,818.23,733.52,822.64,733.53z"/>
				<path d="M827.44,775.91c-4.41,0.01-8-3.53-7.97-7.89c0.02-4.32,3.71-7.97,8.01-7.92c4.28,0.05,7.74,3.54,7.79,7.83
					C835.31,772.39,831.87,775.89,827.44,775.91z"/>
				<path d="M832.03,802.75c-4.41,0.03-7.92-3.48-7.89-7.88c0.02-4.28,3.49-7.77,7.76-7.81c4.32-0.04,7.96,3.59,7.93,7.92
					C839.79,799.24,836.3,802.72,832.03,802.75z"/>
				<path d="M800.52,765.08c4.31,0,7.78,3.47,7.78,7.77c0,4.29-3.49,7.78-7.78,7.78c-4.3,0-7.77-3.48-7.76-7.78
					C792.76,768.5,796.19,765.08,800.52,765.08z"/>
				<path d="M803.72,745.86c0.06,4.3-3.37,7.84-7.66,7.89c-4.29,0.05-7.83-3.39-7.89-7.67c-0.06-4.3,3.37-7.81,7.67-7.87
					C800.18,738.14,803.66,741.52,803.72,745.86z"/>
				<path d="M836.84,813.73c5.34,0.04,9.07,5.28,7.35,10.36c-0.65,1.93-1.77,3.3-4,3.56c-1.65,0.19-3.29,0.6-4.89,1.06
					c-1.05,0.3-1.86,0-2.69-0.52c-2.92-1.81-4.34-5.44-3.4-8.73C830.19,816.01,833.25,813.71,836.84,813.73z"/>
				<path d="M809.92,834.04c-4.31,0.02-7.8-3.43-7.78-7.71c0.01-4.24,3.58-7.76,7.82-7.72c4.18,0.04,7.56,3.44,7.61,7.64
					C817.6,830.63,814.27,834.02,809.92,834.04z"/>
				<path d="M805.3,807.16c-4.36-0.01-7.69-3.4-7.65-7.78c0.04-4.2,3.41-7.6,7.59-7.65c4.24-0.05,7.81,3.47,7.83,7.71
					C813.09,803.72,809.6,807.18,805.3,807.16z"/>
				<path d="M791.27,727.08c-5.37,0.08-9.19-5.14-7.49-10.22c0.56-1.68,1.48-2.95,3.31-3.46c1.07-0.3,2.11-0.75,3.1-1.26
					c1.51-0.78,2.91-0.52,4.34,0.17c3.29,1.59,4.98,5.14,4.19,8.81C797.99,724.52,794.86,727.03,791.27,727.08z"/>
				<path d="M776.71,750.79c-0.01,4.21-3.41,7.65-7.6,7.67c-4.12,0.02-7.67-3.46-7.73-7.61c-0.06-4.27,3.46-7.76,7.78-7.73
					C773.42,743.17,776.72,746.52,776.71,750.79z"/>
				<path d="M778.47,811.91c-4.27,0.01-7.62-3.29-7.66-7.55c-0.04-4.32,3.47-7.85,7.73-7.78c4.14,0.07,7.63,3.61,7.6,7.73
					C786.11,808.5,782.68,811.9,778.47,811.91z"/>
				<path d="M773.96,785.03c-4.23,0.04-7.68-3.28-7.78-7.49c-0.1-4.2,3.51-7.87,7.73-7.84c4.19,0.03,7.59,3.46,7.6,7.67
					C781.52,781.64,778.22,784.99,773.96,785.03z"/>
				<path d="M775.65,831.04c-0.05-4.23,3.26-7.65,7.47-7.7c4.21-0.05,7.65,3.27,7.74,7.47c0.09,4.12-3.35,7.67-7.51,7.74
					C779.19,838.62,775.71,835.22,775.65,831.04z"/>
				<path d="M863.43,808.84c5.35,0.01,9.16,5.16,7.6,10.24c-0.36,1.17-0.98,1.91-2.23,2.17c-2.88,0.59-5.76,1.21-8.61,1.92
					c-1.01,0.25-1.66-0.07-2.34-0.72c-2.26-2.16-3.02-5.62-1.87-8.6C857.16,810.81,860.08,808.84,863.43,808.84z"/>
				<path d="M1028.26,617.41c3.07,3.08,3.6,7.14,1.52,10.62c-2,3.35-5.97,4.97-9.69,3.96c-4-1.09-6.39-4.25-6.37-8.73
					C1018.46,621.36,1023.3,619.41,1028.26,617.41z"/>
				<path d="M742.36,748.01c4.22-0.04,7.62,3.35,7.6,7.59c-0.02,4.14-3.31,7.45-7.45,7.48c-4.24,0.03-7.64-3.35-7.61-7.57
					C734.92,751.41,738.27,748.05,742.36,748.01z"/>
				<path d="M751.82,801.29c4.2,0.01,7.59,3.48,7.53,7.68c-0.07,4.12-3.41,7.39-7.56,7.39c-4.14,0-7.46-3.27-7.51-7.42
					C744.23,804.71,747.6,801.28,751.82,801.29z"/>
				<path d="M764.15,835.84c-0.06,4.21-3.55,7.53-7.78,7.4c-4.14-0.12-7.36-3.5-7.28-7.64c0.07-4.14,3.4-7.42,7.53-7.42
					C760.8,828.18,764.21,831.64,764.15,835.84z"/>
				<path d="M746.89,789.75c-4.21-0.06-7.53-3.55-7.4-7.78c0.12-4.14,3.5-7.36,7.64-7.29c4.14,0.07,7.42,3.4,7.42,7.52
					C754.55,786.4,751.09,789.8,746.89,789.75z"/>
				<path d="M715.58,752.73c4.17,0.01,7.41,3.29,7.37,7.47c-0.04,4.02-3.29,7.31-7.29,7.37c-4.03,0.06-7.52-3.36-7.55-7.41
					C708.07,756.09,711.45,752.73,715.58,752.73z"/>
				<path d="M724.81,821.03c-4.16-0.05-7.35-3.37-7.27-7.56c0.08-4.01,3.39-7.28,7.38-7.28c4.04,0,7.49,3.47,7.46,7.51
					C732.35,817.78,728.95,821.07,724.81,821.03z"/>
				<path d="M729.79,847.91c-4.18,0.03-7.46-3.21-7.46-7.38c0-4.13,3.37-7.51,7.44-7.46c3.96,0.04,7.31,3.36,7.4,7.33
					C737.27,844.45,733.91,847.87,729.79,847.91z"/>
				<path d="M720.33,779.61c4.17-0.01,7.43,3.25,7.41,7.43c-0.02,4.12-3.42,7.49-7.49,7.42c-3.96-0.07-7.29-3.41-7.36-7.37
					C712.84,783.02,716.21,779.63,720.33,779.61z"/>
				<path d="M681.58,764.86c0.02-4.05,3.28-7.29,7.34-7.29c4.04,0,7.34,3.26,7.38,7.28c0.04,4.08-3.42,7.52-7.49,7.44
					C684.77,772.22,681.55,768.91,681.58,764.86z"/>
				<path d="M703.13,837.78c4.03,0.03,7.3,3.37,7.25,7.4c-0.05,4.05-3.39,7.26-7.46,7.16c-4-0.09-7.1-3.25-7.11-7.26
					C695.8,841.02,699.07,837.75,703.13,837.78z"/>
				<path d="M705.58,818.43c0,4.03-3.31,7.33-7.34,7.31c-4.05-0.02-7.29-3.33-7.23-7.4c0.06-4,3.2-7.13,7.2-7.17
					C702.28,811.13,705.58,814.38,705.58,818.43z"/>
				<path d="M693.37,784.29c4.07-0.06,7.39,3.17,7.41,7.22c0.03,4.03-3.27,7.35-7.3,7.35c-3.96,0-7.17-3.15-7.27-7.12
					C686.12,787.65,689.28,784.36,693.37,784.29z"/>
				<path d="M897.96,814.67c-4.24,0.96-8.36,1.86-12.46,2.84c-1.26,0.3-1.73-0.45-2.23-1.3c-1.72-2.94-1.33-6.78,0.96-9.37
					c2.33-2.64,6.2-3.46,9.41-2c3.13,1.43,5.05,4.8,4.66,8.18C898.24,813.5,898.11,813.97,897.96,814.67z"/>
				<path d="M1373.69,480.02c5.78-2.3,11.59-4.61,17.37-6.91c1.91,2.72,1.88,6.43-0.13,9.47c-2.35,3.55-5.72,4.94-9.9,4.32
					C1377.47,486.37,1374.58,483.7,1373.69,480.02z"/>
				<path d="M674.03,796.31c0.03,4.07-3.23,7.34-7.26,7.31c-3.89-0.04-7.16-3.31-7.19-7.2c-0.03-3.94,3.13-7.17,7.08-7.25
					C670.8,789.1,674,792.2,674.03,796.31z"/>
				<path d="M676.32,857.02c-4.02,0.05-7.2-3.04-7.25-7.02c-0.05-3.98,3.07-7.23,7.03-7.32c3.86-0.08,7.23,3.19,7.31,7.09
					C683.48,853.68,680.27,856.97,676.32,857.02z"/>
				<path d="M678.78,823.01c0,4-3.14,7.14-7.15,7.13c-3.97,0-7.2-3.21-7.19-7.15c0-3.88,3.33-7.2,7.21-7.19
					C675.58,815.8,678.78,819.03,678.78,823.01z"/>
				<path d="M640.29,794.07c3.93,0.04,7.12,3.33,7.02,7.24c-0.09,3.85-3.25,6.95-7.08,6.97c-3.93,0.02-7.14-3.21-7.12-7.15
					C633.12,797.17,636.32,794.03,640.29,794.07z"/>
				<path d="M669.22,770.62c-0.08,2.23-1.49,4.51-4.32,5.71c-2.8,1.18-5.52,0.8-7.76-1.33c-2.21-2.09-2.88-4.68-1.93-7.64
					c0.39-1.23,1.12-2.04,2.37-2.46c1.35-0.46,2.73-0.92,3.99-1.58c1.84-0.98,3.39-0.48,4.86,0.66
					C668.29,765.43,669.26,767.36,669.22,770.62z"/>
				<path d="M656.61,854.53c-0.05,3.85-3.19,6.92-7.08,6.91c-3.91-0.01-6.96-3.07-6.97-6.98c-0.01-3.98,3.22-7.16,7.16-7.07
					C653.56,847.48,656.66,850.7,656.61,854.53z"/>
				<path d="M644.68,834.85c-3.86-0.04-6.93-3.18-6.93-7.06c0-3.91,3.05-6.97,6.97-6.99c3.98-0.01,7.17,3.2,7.08,7.15
					C651.73,831.78,648.52,834.89,644.68,834.85z"/>
				<path d="M618.12,825.67c3.94,0,6.96,3.05,6.93,7c-0.03,3.79-3.05,6.86-6.82,6.93c-3.8,0.07-7.07-3.12-7.11-6.94
					C611.07,828.82,614.22,825.67,618.12,825.67z"/>
				<path d="M620.25,805.6c0.05,3.91-3.01,7.08-6.87,7.12c-3.8,0.04-7.05-3.19-7.06-7c-0.01-3.76,3.04-6.85,6.82-6.93
					C617.1,798.71,620.2,801.68,620.25,805.6z"/>
				<path d="M910.24,811.95c-2.18-3.65-1.92-7.19,0.56-9.98c2.33-2.64,6.2-3.49,9.42-2.07c3.38,1.49,5.11,4.65,4.64,8.79
					C920.07,809.76,915.2,810.84,910.24,811.95z"/>
				<path d="M622.74,866.12c-3.83,0.03-6.89-2.96-6.94-6.77c-0.05-3.9,3.1-7.1,6.95-7.05c3.74,0.05,6.87,3.21,6.87,6.94
					C629.62,863.01,626.53,866.1,622.74,866.12z"/>
				<path d="M595.97,857.21c3.77-0.05,6.87,2.99,6.91,6.76c0.03,3.77-2.99,6.87-6.76,6.91c-3.78,0.04-6.87-2.98-6.91-6.76
					C589.17,860.33,592.18,857.25,595.97,857.21z"/>
				<path d="M598.08,837.04c0.06,3.77-2.95,6.89-6.71,6.96c-3.78,0.06-6.88-2.93-6.95-6.71c-0.07-3.79,2.91-6.88,6.71-6.96
					C594.89,830.25,598.02,833.27,598.08,837.04z"/>
				<path d="M593.51,810.52c-0.01,3.79-3.05,6.83-6.84,6.83c-3.77,0-6.83-3.07-6.82-6.84c0.01-3.77,3.07-6.83,6.84-6.83
					C590.46,803.68,593.52,806.75,593.51,810.52z"/>
				<path d="M899.71,668.62c2.34,3.17,2.48,6.73,0.59,9.62c-1.93,2.94-5.54,4.32-9,3.45c-3.32-0.83-5.58-3.55-5.99-7.39
					C890.05,672.43,894.84,670.54,899.71,668.62z"/>
				<path d="M569.3,875.27c-3.69-0.04-6.7-3.12-6.63-6.77c0.07-3.63,3.24-6.7,6.84-6.64c3.68,0.07,6.61,3.13,6.57,6.84
					C576.02,872.44,573.06,875.31,569.3,875.27z"/>
				<path d="M566.47,815.09c0,3.71-3.01,6.74-6.68,6.73c-3.62-0.01-6.73-3.12-6.73-6.74c0.01-3.67,3.03-6.67,6.74-6.67
					C563.56,808.42,566.47,811.33,566.47,815.09z"/>
				<path d="M571.27,841.92c0.02,3.71-2.95,6.75-6.63,6.78c-3.61,0.03-6.75-3.07-6.78-6.69c-0.03-3.66,2.99-6.7,6.69-6.72
					C568.31,835.27,571.25,838.17,571.27,841.92z"/>
				<path d="M1262.56,524.25c1.63,5.6-0.82,10.63-5.74,12.35c-4.75,1.66-9.77-0.51-11.84-5.38
					C1250.79,528.92,1256.6,526.62,1262.56,524.25z"/>
				<path d="M1400.9,593.73c-5.66-0.49-9.37-4.78-9.04-10.18c0.3-4.94,4.33-8.9,9.04-8.72
					C1400.9,581.08,1400.9,587.33,1400.9,593.73z"/>
				<path d="M542.55,866.87c3.65,0.02,6.56,2.94,6.54,6.57c-0.02,3.6-3,6.55-6.6,6.54c-3.63-0.01-6.52-2.94-6.51-6.6
					C536,869.71,538.88,866.85,542.55,866.87z"/>
				<path d="M951.67,802.67c-5.1,1.15-10.26,2.32-15.37,3.47c-1.58-2.64-1.24-5.96,0.78-8.49c2.2-2.75,5.92-3.8,9.25-2.62
					C949.59,796.19,951.62,798.99,951.67,802.67z"/>
				<path d="M544.49,846.52c0,3.65-2.9,6.58-6.53,6.58c-3.6,0-6.57-2.96-6.58-6.56c-0.01-3.63,2.91-6.54,6.56-6.54
					C541.62,839.98,544.49,842.85,544.49,846.52z"/>
				<path d="M515.88,871.8c3.55,0,6.37,2.79,6.4,6.34c0.02,3.53-2.78,6.43-6.28,6.51c-3.54,0.08-6.61-2.97-6.57-6.51
					C509.47,874.64,512.36,871.8,515.88,871.8z"/>
				<path d="M511.04,844.92c3.56-0.02,6.4,2.76,6.44,6.3c0.04,3.62-2.91,6.62-6.48,6.56c-3.47-0.06-6.39-3.01-6.38-6.47
					C504.64,847.81,507.52,844.94,511.04,844.92z"/>
				<path d="M539.69,819.93c-0.02,3.85-3.17,6.74-7.04,6.46c-3.7-0.26-6.46-3.57-6.03-7.23c0.17-1.41,0.62-2.56,2.21-3.05
					c1.67-0.51,3.31-1.17,4.87-1.95c1.39-0.69,2.45-0.3,3.5,0.56C538.87,816.06,539.7,817.79,539.69,819.93z"/>
				<path d="M490.67,856.06c0.02,3.52-2.63,6.24-6.13,6.29c-3.57,0.05-6.45-2.78-6.41-6.31c0.04-3.39,2.92-6.23,6.3-6.23
					C487.88,849.82,490.65,852.6,490.67,856.06z"/>
				<path d="M495.3,882.7c0.04,3.38-2.78,6.29-6.17,6.36c-3.43,0.08-6.28-2.66-6.36-6.11c-0.09-3.63,2.62-6.42,6.23-6.43
					C492.47,876.52,495.26,879.26,495.3,882.7z"/>
				<path d="M463.73,860.78c-0.04,3.44-2.93,6.25-6.33,6.14c-3.31-0.1-6.07-2.92-6.08-6.21c-0.02-3.42,2.81-6.22,6.27-6.2
					C461.08,854.52,463.78,857.27,463.73,860.78z"/>
				<path d="M462.45,881.44c3.36,0.04,6.05,2.78,6.03,6.15c-0.01,3.45-2.89,6.22-6.33,6.1c-3.36-0.12-6.02-2.94-5.92-6.28
					C456.33,884.04,459.09,881.39,462.45,881.44z"/>
				<path d="M978.59,796.66c-5.41,1.22-10.64,2.4-15.85,3.57c-1.69-3.95,0.71-8.61,5.06-10.09
					C972.54,788.52,977.27,791.25,978.59,796.66z"/>
				<path d="M756.87,725.43c4.62-1.83,9.11-3.62,13.57-5.38c1.86,2.42,1.96,5.53,0.35,8.11c-1.64,2.64-4.66,3.99-7.82,3.51
					C759.91,731.2,757.63,728.95,756.87,725.43z"/>
				<path d="M441.55,892.23c-0.07,3.33-2.91,6.05-6.23,5.96c-3.35-0.09-5.95-2.89-5.85-6.29c0.1-3.31,2.72-5.82,6.06-5.79
					C438.91,886.13,441.62,888.89,441.55,892.23z"/>
				<path d="M430.99,859.41c3.35,0.04,6,2.8,5.94,6.2c-0.06,3.42-2.76,5.98-6.21,5.88c-3.27-0.09-5.89-2.77-5.87-6.03
					C424.86,862.13,427.66,859.37,430.99,859.41z"/>
				<path d="M1133.5,575.58c1.28,4.98-1.45,9.43-5.59,10.97c-4.19,1.55-8.52-0.03-11.12-4.29
					C1122.34,580.04,1127.83,577.85,1133.5,575.58z"/>
				<path d="M408.89,891.03c3.28,0.03,5.89,2.72,5.84,6c-0.05,3.18-2.64,5.76-5.82,5.8c-3.25,0.04-5.97-2.64-5.98-5.9
					C402.92,893.66,405.61,891,408.89,891.03z"/>
				<path d="M387.91,901.74c-0.01,3.25-2.53,5.72-5.8,5.68c-3.09-0.03-5.63-2.54-5.69-5.62c-0.06-3.1,2.62-5.84,5.74-5.87
					C385.32,895.92,387.92,898.54,387.91,901.74z"/>
				<path d="M988.97,794.3c-0.74-4.14,1.65-7.93,5.61-9.15c4.34-1.34,8.54,0.78,10.5,5.5C999.73,792.09,994.34,793.14,988.97,794.3z
					"/>
				<path d="M404.14,876.17c-3.79,0.06-6.75-3.47-5.81-7.05c0.15-0.58,0.71-1.26,1.25-1.51c1.81-0.83,3.72-1.43,5.54-2.25
					c1.24-0.56,2.14-0.18,3.01,0.67c1.71,1.66,2.27,4.18,1.38,6.4C408.61,874.69,406.54,876.13,404.14,876.17z"/>
				<path d="M355.4,911.82c-3.17,0.04-5.62-2.37-5.62-5.53c0-3.13,2.49-5.64,5.59-5.61c2.97,0.03,5.47,2.48,5.55,5.46
					C361,909.23,358.53,911.78,355.4,911.82z"/>
				<path d="M334.08,911.06c0.01,3.04-2.46,5.47-5.5,5.43c-2.93-0.05-5.31-2.45-5.32-5.38c-0.01-3.03,2.49-5.5,5.51-5.44
					C331.71,905.72,334.08,908.13,334.08,911.06z"/>
				<path d="M301.89,920.85c-2.99,0.04-5.32-2.26-5.31-5.24c0.01-2.85,2.29-5.18,5.12-5.24c2.84-0.06,5.38,2.45,5.36,5.3
					C307.06,918.49,304.74,920.81,301.89,920.85z"/>
				<path d="M628.66,776.46c4.41-1.76,8.6-3.44,12.98-5.2c1.29,2.24,1.06,4.37-0.02,6.39c-1.36,2.54-3.63,3.82-6.48,3.69
					C632.1,781.21,629.92,779.66,628.66,776.46z"/>
				<path d="M301.39,941.95c0.03-1.6,1.05-3.21,3-4.17c1.91-0.95,4.23-0.58,5.76,0.91c1.55,1.51,2.1,3.32,1.43,5.44
					c-0.39,1.24-1.04,2.09-2.46,2.21c-0.78,0.07-1.55,0.32-2.32,0.5C303.56,947.56,301.4,945.84,301.39,941.95z"/>
				<path d="M274.94,947.31c0-2.84,2.14-4.99,4.98-5.01c2.79-0.02,5.07,2.17,5.13,4.92c0.06,2.8-2.35,5.23-5.15,5.19
					C277.15,952.37,274.94,950.09,274.94,947.31z"/>
				<path d="M1015.5,788.4c0.44-4.42,2.95-7.34,6.7-8.13c3.67-0.78,7.15,0.84,9.22,4.45C1026.2,786.2,1020.95,787.16,1015.5,788.4z"
					/>
				<path d="M1003.98,627.13c0.54,3.92-1.37,7.3-4.81,8.87c-2.73,1.25-7.54,1.1-10.3-2.71
					C993.84,630.98,998.92,629.16,1003.98,627.13z"/>
				<path d="M252.98,956.83c-2.78-0.05-4.93-2.31-4.85-5.11c0.08-2.66,2.28-4.83,4.93-4.84c2.71-0.01,5.04,2.33,5.01,5.03
					C258.05,954.66,255.75,956.87,252.98,956.83z"/>
				<path d="M338.3,939.76c-2.53,0.59-4.84,1.16-7.16,1.65c-1.68,0.35-2.08,0.1-2.8-1.43c-0.94-1.98-0.54-4.37,0.98-5.99
					c1.53-1.61,3.87-2.12,5.92-1.29c2.09,0.85,3.44,2.8,3.41,5.01C338.63,938.34,338.44,938.96,338.3,939.76z"/>
				<path d="M221.69,956.68c0.01-2.74,2.12-4.8,4.88-4.74c2.58,0.06,4.69,2.2,4.69,4.76c-0.01,2.6-2.35,4.89-4.94,4.81
					C223.74,961.42,221.69,959.27,221.69,956.68z"/>
				<path d="M270.4,918.99c2.49-0.99,4.92-1.95,7.25-2.87c2.62,2.01,3.25,4.36,1.94,6.75c-1.16,2.12-3.66,3.12-5.92,2.38
					C271.03,924.4,269.92,922.38,270.4,918.99z"/>
				<path d="M365.62,933.68c-3.46,0.77-6.79,1.51-10.06,2.24c-1.37-2.23-1.24-4.47,0.25-6.3c1.47-1.79,3.88-2.48,6.05-1.73
					C364.29,928.71,365.51,930.51,365.62,933.68z"/>
				<path d="M204.1,961.15c0.04,2.56-1.93,4.64-4.45,4.7c-2.46,0.05-4.64-2.04-4.7-4.51c-0.06-2.5,1.97-4.6,4.51-4.64
					C202.06,956.65,204.06,958.57,204.1,961.15z"/>
				<path d="M1057.48,778.86c-0.39,0.17-0.59,0.3-0.8,0.34c-4.72,1.07-9.45,2.12-14.19,3.19c-0.19-2.71,1.96-5.47,5.11-6.64
					C1051.23,774.4,1054.99,775.53,1057.48,778.86z"/>
				<path d="M173.01,970.38c-2.46,0.04-4.46-1.89-4.48-4.31c-0.01-2.4,2.02-4.43,4.42-4.42c2.33,0.01,4.24,1.89,4.31,4.24
					C177.33,968.4,175.5,970.34,173.01,970.38z"/>
				<path d="M500.63,827.37c3.97-1.58,7.77-3.09,11.56-4.59c1.53,3.48-1.18,7.06-3.64,7.92
					C505.45,831.78,502.42,830.65,500.63,827.37z"/>
				<path d="M1350.11,489.42c5.1-2.04,9.95-3.98,14.84-5.94c0.28,2.63-1.69,5.58-4.64,7.1
					C1356.92,492.32,1353.07,491.95,1350.11,489.42z"/>
				<path d="M392.21,927.77c-3.57,0.78-7.16,1.56-10.74,2.34c-0.92-3.78,0.94-6.84,4.26-7.38
					C389.11,922.17,391.86,924.24,392.21,927.77z"/>
				<path d="M860.78,684.08c4.88-1.94,9.33-3.7,14.11-5.6c-0.29,3.73-1.86,6.14-4.85,7.44
					C866.85,687.32,863.85,686.77,860.78,684.08z"/>
				<path d="M1400.89,618.76c-5.29-2.53-5.87-12.09-0.27-15.3C1401.15,605.02,1401.31,613.64,1400.89,618.76z"/>
				<path d="M419.1,921.73c-3.82,0.85-7.44,1.67-11.08,2.48c-0.31-3.2,1.28-5.58,4.05-6.32
					C415.07,917.08,417.66,918.41,419.1,921.73z"/>
				<path d="M1069.12,776.43c1.4-3.5,3.54-5.3,6.65-5.93c3-0.6,5.59,0.2,8.15,2.63C1078.89,774.25,1074.3,775.28,1069.12,776.43z"/>
				<path d="M148.47,967.5c2.02,2.21,2.23,4.14,0.83,5.91c-1.31,1.64-3.61,2.17-5.32,0.99c-0.79-0.55-1.47-1.45-1.86-2.35
					c-0.58-1.36-0.24-1.9,1.22-2.51C145.02,968.85,146.72,968.2,148.47,967.5z"/>
				<path d="M1235.97,534.82c-1.44,6.34-9.31,8.77-13.79,5.48C1226.79,538.47,1231.21,536.71,1235.97,534.82z"/>
				<path d="M372.99,878.16c3.27-1.29,6.49-2.57,9.73-3.86c0.58,2.51-0.57,4.67-2.96,5.76C377.25,881.2,374.82,880.55,372.99,878.16
					z"/>
				<path d="M445.01,915.91c-3.47,0.79-6.89,1.56-10.38,2.35c0.23-2.7,1.87-4.57,4.31-5.09
					C441.51,912.62,443.71,913.57,445.01,915.91z"/>
				<path d="M744.95,730.19c-1.79,5.61-7.12,7.61-11.44,4.54C737.28,733.23,740.92,731.79,744.95,730.19z"/>
				<path d="M1096.86,770.22c2.89-4.85,8.29-5.92,12.22-2.71C1104.89,768.44,1100.87,769.33,1096.86,770.22z"/>
				<path d="M471.42,910.05c-3.43,0.75-6.56,1.44-9.87,2.16C463.34,907.82,467.81,906.8,471.42,910.05z"/>
				<path d="M1095.32,590.81c3.47-1.39,6.73-2.7,10.2-4.09C1103.82,590.67,1099.12,592.56,1095.32,590.81z"/>
				<path d="M245.42,928.94c2.71-1.08,5.2-2.08,7.9-3.15C252.34,929.97,249.03,931.3,245.42,928.94z"/>
				<path d="M1124.56,764.07c2.36-3.24,5.9-4.04,9.88-2.3C1130.89,762.6,1127.72,763.33,1124.56,764.07z"/>
				<path d="M614.99,781.96c-2.12,3.63-4.61,4.63-8.71,3.48C609.23,784.1,611.87,783.08,614.99,781.96z"/>
				<path d="M496.64,904.38c-2.55,0.58-4.9,1.11-7.42,1.68C490.61,903.37,493.8,902.65,496.64,904.38z"/>
				<path d="M1400.75,476.21c-1.24-2.2-1.4-4.4-0.17-6.61C1401.26,471.78,1400.98,474,1400.75,476.21z"/>
				<path d="M974.34,638.9c-1.21,1.86-3.02,2.32-4.93,2.55c-0.07-0.16-0.13-0.31-0.2-0.47C970.92,640.29,972.63,639.6,974.34,638.9z
					"/>
				<path d="M1153.56,756.96c1.4-0.33,2.8-0.66,4.21-0.98c0.04,0.18,0.09,0.36,0.13,0.54c-1.37,0.34-2.73,0.67-4.1,1.01
					C1153.72,757.34,1153.64,757.15,1153.56,756.96z"/>
				<path d="M517.3,899.09c1.13-0.26,2.26-0.52,3.39-0.78c0.05,0.2,0.1,0.39,0.14,0.59c-1.13,0.28-2.25,0.56-3.38,0.84
					C517.41,899.52,517.35,899.31,517.3,899.09z"/>
			</g>
		</g>
		<g>
			<linearGradient id="SVGID_10_" gradientUnits="userSpaceOnUse" x1="584.0399" y1="118.7631" x2="563.7612" y2="-27.6943">
				<stop  offset="0" style="stop-color:#414141"/>
				<stop  offset="1" style="stop-color:#010101"/>
			</linearGradient>
			<polygon class="st10" points="1164.21,0 0,0 0,209.56 			"/>
			<linearGradient id="SVGID_11_" gradientUnits="userSpaceOnUse" x1="254.0338" y1="158.2379" x2="834.6971" y2="57.09">
				<stop  offset="0" style="stop-color:#121C26"/>
				<stop  offset="0.0473" style="stop-color:#3D454D"/>
				<stop  offset="0.1111" style="stop-color:#70767C"/>
				<stop  offset="0.1762" style="stop-color:#9CA0A4"/>
				<stop  offset="0.2414" style="stop-color:#C0C2C5"/>
				<stop  offset="0.3067" style="stop-color:#DBDDDE"/>
				<stop  offset="0.3722" style="stop-color:#EFF0F1"/>
				<stop  offset="0.4381" style="stop-color:#FBFBFB"/>
				<stop  offset="0.5049" style="stop-color:#FFFFFF"/>
				<stop  offset="0.5712" style="stop-color:#FBFBFB"/>
				<stop  offset="0.6359" style="stop-color:#EFF0F1"/>
				<stop  offset="0.6999" style="stop-color:#DCDDDF"/>
				<stop  offset="0.7636" style="stop-color:#C0C3C5"/>
				<stop  offset="0.827" style="stop-color:#9DA1A5"/>
				<stop  offset="0.8901" style="stop-color:#71777D"/>
				<stop  offset="0.952" style="stop-color:#3F474F"/>
				<stop  offset="1" style="stop-color:#121C26"/>
			</linearGradient>
			<polygon class="st11" points="1164.21,0 0,195.42 0,209.56 			"/>
			<linearGradient id="SVGID_12_" gradientUnits="userSpaceOnUse" x1="586.6447" y1="206.7649" x2="569.7867" y2="98.1246">
				<stop  offset="0" style="stop-color:#414141"/>
				<stop  offset="1" style="stop-color:#010101"/>
			</linearGradient>
			<polygon class="st12" points="1164.21,0 0,355 0,209.56 			"/>
			<linearGradient id="SVGID_13_" gradientUnits="userSpaceOnUse" x1="586.6447" y1="206.7649" x2="569.7867" y2="98.1246">
				<stop  offset="0" style="stop-color:#414141"/>
				<stop  offset="1" style="stop-color:#010101"/>
			</linearGradient>
			<polygon class="st13" points="1164.21,0 0,355 0,209.56 			"/>
			<linearGradient id="SVGID_14_" gradientUnits="userSpaceOnUse" x1="274.808" y1="270.7872" x2="804.8973" y2="98.4613">
				<stop  offset="0" style="stop-color:#121C26"/>
				<stop  offset="0.0473" style="stop-color:#3D454D"/>
				<stop  offset="0.1111" style="stop-color:#70767C"/>
				<stop  offset="0.1762" style="stop-color:#9CA0A4"/>
				<stop  offset="0.2414" style="stop-color:#C0C2C5"/>
				<stop  offset="0.3067" style="stop-color:#DBDDDE"/>
				<stop  offset="0.3722" style="stop-color:#EFF0F1"/>
				<stop  offset="0.4381" style="stop-color:#FBFBFB"/>
				<stop  offset="0.5049" style="stop-color:#FFFFFF"/>
				<stop  offset="0.5712" style="stop-color:#FBFBFB"/>
				<stop  offset="0.6359" style="stop-color:#EFF0F1"/>
				<stop  offset="0.6999" style="stop-color:#DCDDDF"/>
				<stop  offset="0.7636" style="stop-color:#C0C3C5"/>
				<stop  offset="0.827" style="stop-color:#9DA1A5"/>
				<stop  offset="0.8901" style="stop-color:#71777D"/>
				<stop  offset="0.952" style="stop-color:#3F474F"/>
				<stop  offset="1" style="stop-color:#121C26"/>
			</linearGradient>
			<polygon class="st14" points="1164.21,0 0,355 0,341.78 			"/>
		</g>
		<g>
			<path d="M91.43,39.99c-0.03,3.75-3.15,6.85-6.89,6.82c-3.75-0.03-6.81-3.15-6.78-6.92c0.02-3.76,3.15-6.86,6.88-6.83
				C88.39,33.1,91.46,36.24,91.43,39.99z"/>
			<path d="M95.99,66.73c0.05,3.77-2.98,6.9-6.74,6.96c-3.73,0.06-6.87-3.02-6.93-6.77c-0.05-3.75,3-6.9,6.75-6.97
				C92.79,59.88,95.95,62.98,95.99,66.73z"/>
			<path d="M57.69,51.61c-3.75-0.02-6.82-3.13-6.81-6.89c0.01-3.76,3.13-6.87,6.86-6.85c3.74,0.02,6.83,3.15,6.81,6.9
				C64.54,48.52,61.42,51.63,57.69,51.61z"/>
			<path d="M33.12,22.63c0.02,3.77-3.05,6.88-6.8,6.9c-3.73,0.02-6.85-3.08-6.87-6.83c-0.02-3.75,3.07-6.88,6.81-6.91
				C29.98,15.76,33.1,18.87,33.12,22.63z"/>
			<path d="M127.44,88.92c-0.01,3.75-3.12,6.86-6.85,6.85c-3.74-0.01-6.82-3.12-6.82-6.88c0.01-3.76,3.11-6.87,6.85-6.86
				C124.34,82.04,127.44,85.17,127.44,88.92z"/>
			<path d="M47.28,102.79c0.02,3.75-3.07,6.88-6.81,6.9c-3.74,0.02-6.85-3.08-6.86-6.84c-0.01-3.76,3.06-6.88,6.8-6.9
				C44.14,95.93,47.26,99.04,47.28,102.79z"/>
			<path d="M37.91,49.47c0.04,3.77-3.01,6.89-6.76,6.94c-3.73,0.05-6.87-3.04-6.91-6.8c-0.04-3.75,3.02-6.9,6.77-6.95
				C34.74,42.62,37.88,45.72,37.91,49.47z"/>
			<path d="M76.57,158.65c-3.75-0.08-6.79-3.23-6.72-6.98c0.07-3.76,3.24-6.84,6.95-6.76c3.76,0.08,6.77,3.22,6.71,6.99
				C83.46,155.66,80.3,158.72,76.57,158.65z"/>
			<path d="M20.63,107.51c0.06,3.77-2.96,6.91-6.72,6.98c-3.73,0.07-6.88-2.99-6.95-6.75c-0.07-3.75,2.98-6.91,6.72-6.99
				C17.41,100.67,20.58,103.76,20.63,107.51z"/>
			<path d="M110.15,146.88c0.06,3.75-2.98,6.9-6.73,6.97c-3.73,0.07-6.88-3.01-6.93-6.76c-0.05-3.77,2.97-6.9,6.73-6.98
				C106.93,140.04,110.09,143.12,110.15,146.88z"/>
			<path d="M78.72,124.9c0,3.76-3.08,6.87-6.82,6.87c-3.74,0.01-6.84-3.11-6.85-6.86c0-3.75,3.1-6.88,6.83-6.88
				C75.61,118.02,78.71,121.13,78.72,124.9z"/>
			<path d="M136.79,142.25c-0.04,3.76-3.17,6.84-6.9,6.8c-3.74-0.05-6.81-3.19-6.77-6.94c0.04-3.75,3.19-6.85,6.91-6.8
				C133.78,135.36,136.83,138.49,136.79,142.25z"/>
			<path d="M122.88,61.97c0.03,3.77-3.02,6.89-6.77,6.92c-3.73,0.04-6.86-3.05-6.89-6.81c-0.03-3.75,3.04-6.89,6.78-6.93
				C119.71,55.11,122.85,58.21,122.88,61.97z"/>
			<path d="M52.07,129.6c0.07,3.75-2.98,6.91-6.73,6.97c-3.73,0.07-6.88-3-6.94-6.76c-0.05-3.77,2.97-6.91,6.72-6.98
				C48.85,122.76,52.01,125.84,52.07,129.6z"/>
			<path d="M18.29,127.46c3.83-0.03,6.86,2.93,6.91,6.73c0.04,3.8-2.95,6.84-6.76,6.87c-3.82,0.03-6.87-2.94-6.91-6.73
				C11.49,130.54,14.49,127.49,18.29,127.46z"/>
			<path d="M106.56,15.3c-3.84,0.05-6.88-2.87-6.95-6.68c-0.07-3.79,2.92-6.87,6.72-6.92c3.82-0.05,6.89,2.91,6.95,6.68
				C113.34,12.18,110.35,15.25,106.56,15.3z"/>
			<path d="M98.44,127.14c-3.8-0.03-6.8-3.09-6.75-6.88c0.04-3.78,3.1-6.75,6.92-6.72c3.8,0.03,6.8,3.09,6.75,6.88
				C105.3,124.23,102.28,127.17,98.44,127.14z"/>
			<path d="M9.08,87.78c-3.84,0.03-6.86-2.91-6.91-6.72c-0.05-3.79,2.96-6.85,6.76-6.88c3.81-0.03,6.87,2.95,6.91,6.73
				C15.88,84.7,12.88,87.75,9.08,87.78z"/>
			<path d="M125.49,108.74c3.8,0.04,6.8,3.1,6.75,6.89c-0.05,3.81-3.08,6.75-6.92,6.71c-3.8-0.04-6.79-3.09-6.75-6.88
				C118.61,111.67,121.67,108.7,125.49,108.74z"/>
			<path d="M62.5,78.18c-3.81-0.01-6.83-3.03-6.81-6.82c0.01-3.78,3.05-6.79,6.86-6.78c3.81,0.01,6.83,3.03,6.81,6.82
				C69.34,75.21,66.33,78.19,62.5,78.18z"/>
			<path d="M79.91,6.5c3.8,0.05,6.79,3.13,6.72,6.92c-0.07,3.81-3.11,6.73-6.95,6.68c-3.79-0.05-6.78-3.12-6.72-6.91
				C73.02,9.41,76.1,6.45,79.91,6.5z"/>
			<path d="M111.34,42.18c-3.84,0.04-6.87-2.89-6.94-6.7c-0.06-3.79,2.94-6.86,6.73-6.9c3.81-0.04,6.88,2.92,6.94,6.7
				C118.13,39.07,115.14,42.14,111.34,42.18z"/>
			<path d="M49.81,163.14c-3.83,0-6.84-2.99-6.84-6.79c0-3.79,3.02-6.8,6.83-6.81c3.8,0,6.84,3.01,6.84,6.8
				C56.64,160.12,53.62,163.14,49.81,163.14z"/>
			<path d="M35.63,82.98c-3.81,0-6.83-3.02-6.83-6.81c0.01-3.78,3.04-6.8,6.84-6.79c3.81,0,6.83,3.02,6.83,6.81
				C42.47,80,39.46,82.98,35.63,82.98z"/>
			<path d="M53.1,24.9c-3.81-0.03-6.81-3.06-6.77-6.86c0.04-3.8,3.07-6.77,6.9-6.74c3.8,0.03,6.8,3.07,6.77,6.86
				C59.97,21.95,56.92,24.93,53.1,24.9z"/>
			<path d="M67.11,105.06c-3.83,0.01-6.85-2.96-6.87-6.76c-0.02-3.79,2.99-6.82,6.8-6.83c3.81-0.01,6.85,2.98,6.87,6.77
				C73.94,102.02,70.92,105.05,67.11,105.06z"/>
			<path d="M94.06,86.66c3.79,0.04,6.79,3.1,6.74,6.9c-0.05,3.78-3.11,6.75-6.93,6.7c-3.81-0.04-6.8-3.1-6.74-6.89
				C87.19,89.56,90.23,86.62,94.06,86.66z"/>
			<path d="M23.2,167.94c-3.81,0.02-6.86-2.98-6.87-6.76c-0.02-3.79,3-6.82,6.8-6.84c3.82-0.02,6.85,2.96,6.87,6.76
				C30.02,164.9,27.01,167.92,23.2,167.94z"/>
			<path d="M156.7,144.36c-3.73-0.06-6.6-3.01-6.59-6.76c0.01-3.83,3.04-6.8,6.88-6.73c3.67,0.06,6.66,3.11,6.64,6.78
				C163.62,141.41,160.51,144.43,156.7,144.36z"/>
			<path d="M142.57,64.2c-3.69-0.04-6.68-3.05-6.69-6.72c-0.01-3.76,3.1-6.82,6.89-6.77c3.72,0.05,6.63,3,6.63,6.74
				C149.42,61.29,146.43,64.25,142.57,64.2z"/>
			<path d="M137.78,37.32c-3.69-0.04-6.68-3.04-6.69-6.72c-0.01-3.76,3.1-6.82,6.88-6.78c3.72,0.04,6.63,2.99,6.64,6.73
				C144.62,34.4,141.63,37.36,137.78,37.32z"/>
			<path d="M152.02,117.48c-3.84-0.01-6.78-3.03-6.71-6.89c0.07-3.73,3.03-6.62,6.76-6.61c3.77,0.01,6.85,3.15,6.76,6.9
				C158.75,114.57,155.73,117.49,152.02,117.48z"/>
			<path d="M154.21,84.08c0.01,3.8-3.09,6.89-6.83,6.82c-3.65-0.06-6.67-3.13-6.69-6.77c-0.02-3.75,3.14-6.88,6.88-6.81
				C151.27,77.38,154.2,80.36,154.21,84.08z"/>
			<path d="M190.15,132.8c0.01,3.74-2.93,6.71-6.65,6.72c-3.68,0.01-6.74-3.02-6.76-6.68c-0.01-3.65,3.05-6.72,6.71-6.74
				C187.15,126.09,190.14,129.08,190.15,132.8z"/>
			<path d="M169.37,45.94c3.66,0.03,6.72,3.12,6.69,6.76c-0.03,3.67-3.1,6.68-6.78,6.66c-3.71-0.02-6.65-3.01-6.63-6.75
				C162.67,48.9,165.67,45.92,169.37,45.94z"/>
			<path d="M171.43,25.94c-0.07,3.71-3.1,6.63-6.83,6.54c-3.67-0.08-6.69-3.23-6.58-6.86c0.11-3.67,3.24-6.65,6.89-6.56
				C168.61,19.15,171.49,22.2,171.43,25.94z"/>
			<path d="M178.96,112.89c-3.72,0.02-6.69-2.94-6.7-6.67c-0.01-3.76,2.88-6.69,6.64-6.71c3.7-0.02,6.75,2.97,6.77,6.64
				C185.69,109.79,182.63,112.87,178.96,112.89z"/>
			<path d="M167.45,79.12c0.08-3.73,3.08-6.58,6.85-6.49c3.69,0.09,6.68,3.21,6.55,6.85c-0.13,3.68-3.26,6.63-6.91,6.52
				C170.21,85.89,167.38,82.88,167.45,79.12z"/>
			<path d="M207.38,74.84c-0.05,3.6-3.01,6.54-6.6,6.56c-3.66,0.02-6.74-3.1-6.67-6.75c0.07-3.58,3.08-6.56,6.63-6.57
				C204.41,68.07,207.43,71.14,207.38,74.84z"/>
			<path d="M196.17,54.52c-3.69-0.02-6.66-3.09-6.59-6.8c0.07-3.59,3.07-6.53,6.65-6.52c3.65,0.01,6.73,3.18,6.63,6.81
				C202.75,51.6,199.74,54.54,196.17,54.52z"/>
			<path d="M210.52,121.67c3.65,0.07,6.47,2.98,6.46,6.63c-0.02,3.74-3,6.63-6.78,6.55c-3.61-0.07-6.53-3.05-6.5-6.63
				C203.73,124.52,206.78,121.59,210.52,121.67z"/>
			<path d="M191.35,27.82c-3.76-0.03-6.65-3.01-6.57-6.76c0.08-3.64,2.99-6.44,6.66-6.42c3.63,0.02,6.56,2.91,6.61,6.52
				C198.11,24.83,195.07,27.84,191.35,27.82z"/>
			<path d="M205.74,94.79c3.64,0.08,6.46,3,6.44,6.65c-0.03,3.74-3.02,6.61-6.8,6.53c-3.61-0.08-6.52-3.07-6.48-6.66
				C198.95,97.62,202,94.71,205.74,94.79z"/>
			<path d="M234.21,69.84c0.06,3.59-2.87,6.62-6.46,6.7c-3.58,0.08-6.59-2.86-6.65-6.49c-0.05-3.64,2.82-6.63,6.43-6.7
				C231.1,63.28,234.15,66.25,234.21,69.84z"/>
			<path d="M239.01,96.74c0.05,3.59-2.89,6.61-6.49,6.68c-3.59,0.06-6.58-2.88-6.62-6.51c-0.04-3.64,2.85-6.63,6.46-6.68
				C235.93,90.18,238.97,93.15,239.01,96.74z"/>
			<path d="M218.29,9.89c3.66,0,6.53,2.88,6.53,6.55c-0.01,3.68-2.87,6.52-6.56,6.51c-3.65-0.01-6.56-2.91-6.55-6.54
				C211.72,12.79,214.65,9.88,218.29,9.89z"/>
			<path d="M236.89,129.99c-3.64-0.04-6.52-3-6.46-6.63c0.06-3.62,3.02-6.47,6.67-6.43c3.65,0.04,6.49,2.96,6.43,6.64
				C243.48,127.23,240.59,130.03,236.89,129.99z"/>
			<path d="M229.41,43.25c0.03,3.63-2.87,6.56-6.51,6.58c-3.69,0.02-6.57-2.8-6.59-6.47c-0.03-3.67,2.83-6.57,6.49-6.59
				C226.44,36.75,229.38,39.63,229.41,43.25z"/>
			<path d="M259.15,85.55c3.64,0.03,6.44,2.93,6.39,6.61c-0.06,3.52-2.9,6.35-6.41,6.38c-3.56,0.02-6.57-2.97-6.57-6.52
				C252.56,88.43,255.53,85.52,259.15,85.55z"/>
			<path d="M238.47,11.88c-0.01-3.66,2.86-6.52,6.51-6.49c3.61,0.03,6.54,3.02,6.47,6.59c-0.07,3.47-2.97,6.35-6.45,6.4
				C241.42,18.43,238.48,15.5,238.47,11.88z"/>
			<path d="M254.36,58.67c3.64,0.04,6.44,2.94,6.37,6.62c-0.06,3.52-2.91,6.35-6.42,6.37c-3.56,0.02-6.57-2.98-6.56-6.53
				C247.77,61.54,250.74,58.63,254.36,58.67z"/>
			<path d="M270.33,118.61c0.02,3.67-2.81,6.54-6.46,6.53c-3.6,0-6.56-2.98-6.51-6.54c0.04-3.48,2.92-6.37,6.4-6.43
				C267.39,112.11,270.31,114.96,270.33,118.61z"/>
			<path d="M256.24,38.39c0.07,3.56-2.87,6.56-6.47,6.59c-3.56,0.02-6.4-2.71-6.5-6.25c-0.1-3.68,2.67-6.64,6.28-6.72
				C253.14,31.93,256.17,34.81,256.24,38.39z"/>
			<path d="M154.91,164.5c0.03-3.08,1.62-5.5,4.15-6.48c2.7-1.05,5.18-0.59,7.3,1.39c1.99,1.86,2.59,4.76,1.63,7.25
				c-0.37,0.97-0.92,1.55-2.05,1.7c-2.28,0.3-4.56,0.68-6.8,1.17c-1.29,0.28-2.12-0.14-2.85-1.13
				C155.34,167.14,154.86,165.74,154.91,164.5z"/>
			<path d="M281.19,54.13c3.5,0.02,6.35,2.9,6.36,6.43c0.01,3.54-2.8,6.41-6.32,6.46c-3.58,0.04-6.61-2.98-6.54-6.53
				C274.78,57,277.72,54.11,281.19,54.13z"/>
			<path d="M276.31,27.25c3.49-0.03,6.4,2.82,6.45,6.34c0.05,3.55-2.71,6.45-6.23,6.54c-3.57,0.09-6.63-2.89-6.63-6.44
				C269.91,30.23,272.84,27.28,276.31,27.25z"/>
			<path d="M234.94,150.01c0.36-2.79,2.15-5.28,4.68-6.1c2.68-0.87,5.06-0.28,7.01,1.77c1.82,1.91,2.2,5,1.04,7.37
				c-0.57,1.15-1.35,1.91-2.69,2.07c-1.34,0.17-2.7,0.34-4,0.69c-2.15,0.57-3.61-0.38-4.6-2.07
				C235.71,152.6,235.41,151.26,234.94,150.01z"/>
			<path d="M221.57,154.94c-0.36,3.28-1.19,4.67-4.13,4.8c-1.5,0.06-3,0.39-4.47,0.76c-1.19,0.3-1.99-0.14-2.76-0.92
				c-2.09-2.1-2.53-5.35-1.06-7.94c1.48-2.61,4.5-3.91,7.35-3.16C219.54,149.28,221.6,151.9,221.57,154.94z"/>
			<path d="M187.83,152.99c5.1-0.01,8.38,4.73,6.73,9.07c-0.4,1.06-0.98,1.74-2.19,1.89c-2.22,0.28-4.43,0.62-6.61,1.08
				c-1.12,0.24-1.85-0.11-2.5-0.91c-1.77-2.18-2.23-4.59-1.06-7.17C183.35,154.38,185.48,153.15,187.83,152.99z"/>
			<path d="M141.59,169.57c-0.04,0.21-0.15,0.83-0.29,1.45c-0.23,1.01-0.73,1.66-1.9,1.81c-2.6,0.35-5.2,0.78-7.77,1.28
				c-1.25,0.24-1.94-0.32-2.56-1.25c-1.56-2.33-1.5-5.59,0.19-7.86c1.77-2.38,4.85-3.36,7.67-2.42
				C139.74,163.51,141.62,166.16,141.59,169.57z"/>
			<path d="M114.96,173.84c-0.07,0.4-0.14,1.12-0.31,1.81c-0.22,0.91-0.71,1.51-1.77,1.65c-2.59,0.36-5.19,0.74-7.75,1.29
				c-1.35,0.28-2.1-0.21-2.76-1.25c-1.55-2.41-1.44-5.53,0.31-7.83c1.8-2.37,4.91-3.32,7.69-2.33
				C113.11,168.14,114.91,170.63,114.96,173.84z"/>
			<path d="M285.62,93.61c-3.55-0.05-6.32-2.87-6.3-6.44c0.02-3.56,2.82-6.33,6.39-6.34c3.64,0,6.58,2.98,6.47,6.55
				C292.06,90.91,289.16,93.66,285.62,93.61z"/>
			<path d="M290.41,120.49c-3.55-0.05-6.32-2.88-6.29-6.44c0.02-3.56,2.82-6.33,6.39-6.33c3.64,0,6.58,2.98,6.47,6.55
				C296.86,117.79,293.96,120.54,290.41,120.49z"/>
			<path d="M271.88,13.46c-3.55,0.05-6.42-2.72-6.48-6.26c-0.06-3.57,2.66-6.43,6.2-6.52c3.66-0.09,6.64,2.76,6.65,6.36
				C278.27,10.54,275.41,13.41,271.88,13.46z"/>
			<path d="M288.92,140.8c-0.02-2.75,1.62-5.13,4.18-6.08c2.63-0.98,5.55-0.14,7.28,2.08c1.67,2.14,1.81,5.1,0.36,7.38
				c-0.72,1.12-1.63,1.94-3.04,2.07c-0.63,0.06-1.25,0.19-1.88,0.3C291.88,147.23,288.95,144.79,288.92,140.8z"/>
			<path d="M274.97,146.09c-0.19,0.57-0.41,1.78-0.99,2.78c-1.66,2.88-4.83,1.84-7.32,2.55c-1.48,0.42-2.49-0.85-3.34-1.9
				c-1.72-2.13-1.8-5.31-0.27-7.6c1.55-2.32,4.49-3.4,7.13-2.63C272.99,140.11,274.92,142.62,274.97,146.09z"/>
			<path d="M314.14,55.89c-0.06,3.52-3.03,6.38-6.51,6.27c-3.51-0.11-6.29-3.09-6.17-6.61c0.12-3.4,3.02-6.19,6.39-6.15
				C311.36,49.43,314.2,52.37,314.14,55.89z"/>
			<path d="M318.92,83.02c-0.2,3.52-3.29,6.28-6.74,6.01c-3.52-0.27-6.17-3.34-5.92-6.84c0.24-3.38,3.29-6.1,6.63-5.9
				C316.43,76.5,319.13,79.5,318.92,83.02z"/>
			<path d="M323.51,109.2c0.05,3.55-2.75,6.39-6.31,6.41c-3.58,0.02-6.39-2.77-6.38-6.33c0.01-3.46,2.73-6.23,6.18-6.29
				C320.59,102.92,323.46,105.67,323.51,109.2z"/>
			<path d="M309.59,29.03c0.06,3.55-2.73,6.4-6.29,6.42c-3.58,0.02-6.39-2.75-6.39-6.31c0-3.46,2.72-6.24,6.17-6.31
				C306.65,22.75,309.53,25.49,309.59,29.03z"/>
			<path d="M74.39,178.79c0.13-4.64,3.69-7.62,7.82-7.13c3.79,0.45,6.4,4.13,5.75,7.99c-0.22,1.27-0.73,1.96-2.11,2.14
				c-2.45,0.32-4.87,0.82-7.3,1.24c-2.23,0.38-2.8,0.09-3.61-2.03C74.6,180.13,74.47,179.17,74.39,178.79z"/>
			<path d="M328.31,136.12c0.03,3.85-2.7,6.13-7.46,6.21c-2.6,0.05-5.23-3.06-5.23-6.16c0-3.47,2.73-6.25,6.2-6.31
				C325.41,129.81,328.28,132.57,328.31,136.12z"/>
			<path d="M329.81,30.59c-3.44-0.03-6.23-2.83-6.23-6.26c0.01-3.51,2.94-6.35,6.48-6.26c3.45,0.09,6.11,2.9,6.05,6.39
				C336.06,27.95,333.31,30.62,329.81,30.59z"/>
			<path d="M354.83,131.5c-0.05,3.59-2.87,6.22-6.54,6.12c-3.29-0.09-5.99-2.9-5.99-6.24c0-3.51,2.93-6.35,6.47-6.26
				C352.22,125.2,354.89,128,354.83,131.5z"/>
			<path d="M334.61,44.96c3.48-0.04,6.25,2.67,6.3,6.14c0.06,3.51-2.58,6.29-6.06,6.37c-3.56,0.09-6.48-2.72-6.48-6.25
				C328.38,47.81,331.18,44.99,334.61,44.96z"/>
			<path d="M350.34,104.41c0.06,3.42-2.71,6.28-6.14,6.35c-3.51,0.07-6.3-2.56-6.39-6.04c-0.1-3.6,2.64-6.47,6.2-6.48
				C347.45,98.22,350.28,100.98,350.34,104.41z"/>
			<path d="M333,77.9c-0.01-3.49,2.68-6.26,6.15-6.32c3.49-0.06,6.44,2.88,6.39,6.37c-0.05,3.39-2.94,6.24-6.32,6.22
				C335.78,84.15,333.02,81.36,333,77.9z"/>
			<path d="M22.65,192.2c-2.15-2.68-2.34-5.75-0.53-8.34c1.8-2.57,5.11-3.59,8.04-2.49c2.81,1.06,4.63,3.96,4.38,6.98
				c-0.15,1.8-0.44,2.14-2.26,2.44c-3.05,0.51-6.11,1-9.17,1.49C22.96,192.31,22.8,192.23,22.65,192.2z"/>
			<path d="M60.95,185.95c-3.48,0.59-6.71,1.04-9.9,1.71c-1.45,0.3-2.06-0.33-2.6-1.43c-1.25-2.54-0.76-5.71,1.23-7.76
				c1.92-1.99,4.93-2.62,7.49-1.56c2.69,1.11,4.39,3.7,4.24,6.59C61.38,184.27,61.13,185.03,60.95,185.95z"/>
			<path d="M356.48,25.97c-3.48-0.02-6.18-2.79-6.14-6.28c0.05-3.48,2.82-6.14,6.33-6.07c3.35,0.07,6.07,2.82,6.08,6.14
				C362.78,23.16,359.92,25.99,356.48,25.97z"/>
			<path d="M366.17,79.25c-3.48,0.02-6.23-2.72-6.22-6.2c0.01-3.5,2.74-6.18,6.25-6.15c3.36,0.03,6.09,2.72,6.16,6.06
				C372.43,76.35,369.6,79.23,366.17,79.25z"/>
			<path d="M376.85,99.98c-0.02,3.48-2.79,6.2-6.27,6.15c-3.34-0.05-6.08-2.77-6.14-6.1c-0.06-3.41,2.76-6.24,6.22-6.25
				C374.16,93.77,376.87,96.48,376.85,99.98z"/>
			<path d="M361.25,52.63c-3.46-0.04-6.16-2.85-6.1-6.34c0.06-3.36,2.78-6.06,6.13-6.09c3.38-0.03,6.29,2.86,6.28,6.24
				C367.55,49.84,364.66,52.67,361.25,52.63z"/>
			<path d="M375.53,132.79c-3.42,0.03-6.3-2.82-6.29-6.22c0.01-3.39,2.93-6.26,6.31-6.21c3.35,0.04,6.06,2.76,6.1,6.12
				C381.7,129.96,378.98,132.76,375.53,132.79z"/>
			<path d="M394.08,41.64c-0.01,3.35-2.74,6.11-6.08,6.14c-3.41,0.03-6.26-2.88-6.18-6.29c0.08-3.33,2.92-6.09,6.21-6.03
				C391.37,35.51,394.09,38.29,394.08,41.64z"/>
			<path d="M127.65,0.4c3.81,0,7.54,0,11.23,0c1.91,3.03,1.47,6.38-1.08,8.62c-2.43,2.14-6.02,2.27-8.58,0.32
				C126.49,7.24,125.85,3.91,127.65,0.4z"/>
			<path d="M386.63,68.6c-0.06-3.32,2.65-6.16,5.98-6.26c3.29-0.1,6.17,2.63,6.28,5.95c0.11,3.44-2.66,6.34-6.09,6.37
				C389.48,74.68,386.69,71.94,386.63,68.6z"/>
			<path d="M402.2,115.93c3.38,0.03,6.07,2.74,6.06,6.11c-0.01,3.38-2.7,6.05-6.1,6.07c-3.49,0.02-6.23-2.75-6.16-6.22
				C396.07,118.52,398.79,115.9,402.2,115.93z"/>
			<path d="M397.66,89.05c3.38,0.04,6.04,2.75,6.02,6.13c-0.02,3.46-2.83,6.15-6.34,6.05c-3.37-0.09-6.01-2.88-5.92-6.24
				C391.53,91.6,394.25,89.01,397.66,89.05z"/>
			<path d="M383.41,21.07c-3.4,0-6.1-2.65-6.13-6.02c-0.03-3.47,2.73-6.2,6.23-6.16c3.38,0.05,6.05,2.78,6.02,6.14
				C389.5,18.41,386.81,21.07,383.41,21.07z"/>
			<path d="M430.21,90.59c0,3.38-2.75,6.13-6.08,6.08c-3.33-0.05-6.08-2.89-6-6.2c0.07-3.24,2.77-5.9,6.01-5.95
				C427.49,84.47,430.22,87.19,430.21,90.59z"/>
			<path d="M425.41,63.71c-0.01,3.38-2.76,6.13-6.09,6.07c-3.33-0.05-6.07-2.9-6-6.21c0.07-3.24,2.77-5.9,6.02-5.94
				C422.7,57.59,425.42,60.32,425.41,63.71z"/>
			<path d="M0.98,60.12c0-4,0-7.9,0-11.78c2.16-2.07,6.62-0.78,8.25,1.11c2.07,2.39,2.41,5.81,0.67,8.44
				C8.01,60.73,4.77,61.6,0.98,60.12z"/>
			<path d="M420.91,37.1c-0.02,3.35-2.77,6.02-6.17,5.98c-3.4-0.04-5.99-2.75-5.91-6.19c0.08-3.3,2.7-5.87,6-5.87
				C418.2,31.02,420.93,33.76,420.91,37.1z"/>
			<path d="M416.11,10.17c0.01,3.35-2.73,6.05-6.12,6.03c-3.31-0.02-5.91-2.58-5.96-5.9c-0.06-3.42,2.56-6.13,5.95-6.16
				C413.35,4.12,416.11,6.83,416.11,10.17z"/>
			<path d="M429,111.18c3.39,0,6.05,2.69,6.02,6.1c-0.03,3.32-2.6,5.92-5.9,5.96c-3.4,0.05-6.15-2.61-6.18-5.97
				C422.9,113.93,425.63,111.19,429,111.18z"/>
			<path d="M446.36,65.12c-3.25,0.04-6-2.58-6.1-5.83c-0.1-3.29,2.72-6.16,6.04-6.14c3.26,0.01,5.9,2.68,5.92,5.97
				C452.24,62.42,449.65,65.07,446.36,65.12z"/>
			<path d="M455.69,118.4c-3.29,0.02-5.95-2.58-5.99-5.88c-0.04-3.3,2.52-6.01,5.78-6.1c3.32-0.09,6.18,2.7,6.18,6.01
				C461.65,115.67,458.94,118.38,455.69,118.4z"/>
			<path d="M447.42,32.18c0.04,3.31-2.52,5.99-5.8,6.06c-3.35,0.07-6.18-2.69-6.16-6.01c0.03-3.22,2.76-5.94,5.99-5.96
				C444.71,26.25,447.38,28.89,447.42,32.18z"/>
			<path d="M451.05,79.84c3.33-0.02,5.94,2.54,5.98,5.85c0.04,3.32-2.5,5.97-5.8,6.06c-3.34,0.08-6.18-2.69-6.16-6
				C445.09,82.51,447.77,79.86,451.05,79.84z"/>
			<path d="M467.03,54.32c0.01-3.26,2.74-5.97,5.97-5.91c3.23,0.05,5.92,2.85,5.83,6.08c-0.09,3.16-2.72,5.76-5.87,5.78
				C469.71,60.29,467.02,57.59,467.03,54.32z"/>
			<path d="M482.61,102c3.29,0.04,5.92,2.75,5.82,6.01c-0.1,3.28-2.8,5.8-6.12,5.71c-3.21-0.09-5.7-2.67-5.68-5.89
				C476.65,104.53,479.28,101.96,482.61,102z"/>
			<path d="M477.78,86.84c-3.33,0.03-5.95-2.56-5.95-5.86c0-3.21,2.51-5.78,5.71-5.86c3.32-0.08,6.01,2.46,6.09,5.74
				C483.71,84.13,481.08,86.81,477.78,86.84z"/>
			<path d="M468.33,21.84c3.32-0.02,5.93,2.58,5.92,5.89c-0.01,3.3-2.65,5.87-5.98,5.83c-3.21-0.04-5.77-2.58-5.83-5.77
				C462.39,24.53,465.03,21.86,468.33,21.84z"/>
			<path d="M436.54,0.33c3.99,0,5.46,1.01,6.19,3.98c0.64,2.6-0.64,5.36-3.08,6.62c-2.48,1.28-5.6,0.63-7.36-1.52
				c-1.69-2.08-1.72-5.12-0.2-7.34C433.32,0.26,435.07,0.16,436.54,0.33z"/>
			<path d="M505.58,49.65c-0.05,3.2-2.67,5.78-5.83,5.74c-3.15-0.03-5.78-2.69-5.78-5.84c-0.01-3.25,2.77-5.96,6-5.85
				C503.15,43.81,505.63,46.43,505.58,49.65z"/>
			<path d="M510.2,76.6c-0.1,3.15-2.81,5.75-5.94,5.68c-3.27-0.07-5.81-2.82-5.67-6.14c0.14-3.18,2.86-5.7,6.01-5.55
				C507.78,70.74,510.29,73.44,510.2,76.6z"/>
			<path d="M509.24,108.85c-3.26,0.03-5.8-2.42-5.86-5.66c-0.06-3.34,2.51-5.95,5.84-5.93c3.18,0.02,5.78,2.62,5.78,5.79
				C515.01,106.23,512.43,108.82,509.24,108.85z"/>
			<path d="M500.78,22.99c-0.04,3.24-2.56,5.71-5.82,5.7c-3.2-0.01-5.79-2.58-5.8-5.76c-0.02-3.26,2.69-5.9,5.98-5.83
				C498.36,17.17,500.82,19.74,500.78,22.99z"/>
			<path d="M541.51,98.52c-0.01,3.22-2.58,5.77-5.79,5.72c-3.07-0.05-5.63-2.57-5.7-5.64c-0.07-3.15,2.53-5.79,5.73-5.81
				C539,92.77,541.51,95.27,541.51,98.52z"/>
			<path d="M527.59,17.99c0.05,3.24-2.44,5.83-5.65,5.86c-3.17,0.03-5.83-2.6-5.83-5.75c0-3.04,2.55-5.65,5.6-5.75
				C524.89,12.25,527.53,14.78,527.59,17.99z"/>
			<path d="M525.53,71.65c-0.01-3.25,2.49-5.75,5.75-5.73c3.2,0.02,5.81,2.66,5.74,5.8c-0.06,3.06-2.62,5.59-5.69,5.64
				C528.13,77.42,525.54,74.87,525.53,71.65z"/>
			<path d="M526.56,50.72c-3.22,0.06-5.8-2.46-5.83-5.68c-0.03-3.23,2.52-5.81,5.71-5.81c3.05,0,5.65,2.52,5.77,5.58
				C532.34,47.92,529.72,50.66,526.56,50.72z"/>
			<path d="M547.67,40.24c-0.03-3.09,2.46-5.67,5.54-5.75c3.12-0.08,5.83,2.61,5.79,5.76c-0.04,3.08-2.61,5.63-5.68,5.62
				C550.25,45.86,547.7,43.32,547.67,40.24z"/>
			<path d="M563.53,66.75c0.04,3.13-2.38,5.63-5.52,5.69c-3.23,0.06-5.84-2.49-5.81-5.67c0.03-3.09,2.55-5.57,5.67-5.57
				C561.02,61.2,563.49,63.62,563.53,66.75z"/>
			<path d="M568.33,93.8c-0.05,3.12-2.54,5.54-5.69,5.52c-3.12-0.02-5.63-2.51-5.64-5.6c-0.01-3.18,2.62-5.71,5.84-5.64
				C565.97,88.16,568.38,90.67,568.33,93.8z"/>
			<path d="M548.47,19.16c-3.15-0.02-5.6-2.48-5.6-5.61c0-3.23,2.55-5.7,5.82-5.63c3.1,0.07,5.57,2.64,5.51,5.73
				C554.12,16.75,551.6,19.19,548.47,19.16z"/>
			<path d="M589.37,83.34c3.13,0.02,5.54,2.52,5.49,5.68c-0.05,3.06-2.43,5.41-5.48,5.43c-3.14,0.02-5.65-2.45-5.65-5.54
				C583.73,85.81,586.26,83.32,589.37,83.34z"/>
			<path d="M575.08,3.18c3.12-0.04,5.66,2.44,5.67,5.54c0.02,3.1-2.49,5.58-5.62,5.57c-3.06-0.01-5.44-2.35-5.51-5.4
				C569.55,5.72,571.95,3.22,575.08,3.18z"/>
			<path d="M580.07,29.78c3.08,0.08,5.58,2.71,5.48,5.77c-0.1,3.06-2.8,5.58-5.82,5.43c-3.11-0.15-5.45-2.74-5.31-5.89
				C574.56,32.09,577.09,29.71,580.07,29.78z"/>
			<path d="M584.74,56.67c3.07-0.01,5.64,2.56,5.62,5.63c-0.02,3.06-2.64,5.63-5.68,5.57c-3-0.05-5.41-2.49-5.45-5.52
				C579.18,59.22,581.64,56.68,584.74,56.67z"/>
			<path d="M612.06,30.91c-0.04,3.04-2.46,5.43-5.5,5.41c-2.98-0.02-5.48-2.5-5.5-5.47c-0.02-3.04,2.63-5.62,5.68-5.54
				C609.75,25.39,612.1,27.86,612.06,30.91z"/>
			<path d="M621.66,84.33c0.01,3.07-2.4,5.5-5.45,5.51c-3.01,0.01-5.53-2.48-5.55-5.47c-0.01-3,2.47-5.47,5.51-5.48
				C619.26,78.87,621.66,81.25,621.66,84.33z"/>
			<path d="M611.38,52c3.08-0.01,5.48,2.37,5.48,5.45c0,3.06-2.41,5.5-5.46,5.5c-3.01,0-5.53-2.49-5.54-5.48
				C605.86,54.47,608.34,52.01,611.38,52z"/>
			<path d="M638.88,26.04c-0.01,2.93-2.38,5.35-5.3,5.42c-2.98,0.06-5.54-2.46-5.53-5.45c0.01-2.9,2.43-5.36,5.32-5.43
				C636.36,20.51,638.89,23.02,638.88,26.04z"/>
			<path d="M638.03,47.46c2.99,0,5.49,2.57,5.42,5.56c-0.07,2.92-2.51,5.32-5.41,5.32c-3.01,0-5.46-2.52-5.41-5.55
				C632.69,49.87,635.13,47.46,638.03,47.46z"/>
			<path d="M642.74,84.91c-2.97-0.05-5.3-2.39-5.31-5.35c-0.01-3.05,2.42-5.44,5.5-5.4c2.96,0.04,5.31,2.4,5.32,5.35
				C648.27,82.57,645.82,84.96,642.74,84.91z"/>
			<path d="M670.21,48.12c-0.01,2.96-2.38,5.35-5.3,5.34c-2.89-0.01-5.34-2.48-5.33-5.36c0.01-2.9,2.45-5.33,5.35-5.33
				C667.88,42.77,670.21,45.14,670.21,48.12z"/>
			<path d="M660.05,26.76c-2.95-0.03-5.32-2.43-5.28-5.36c0.04-2.92,2.46-5.28,5.4-5.25c2.96,0.03,5.26,2.39,5.23,5.37
				C665.38,24.51,663.04,26.79,660.05,26.76z"/>
			<path d="M675,74.66c0.04,3-2.23,5.35-5.21,5.38c-2.96,0.04-5.37-2.29-5.42-5.22c-0.05-2.91,2.33-5.35,5.26-5.39
				C672.6,69.38,674.97,71.69,675,74.66z"/>
			<path d="M692.21,16.68c-0.01,2.86-2.27,5.18-5.11,5.23c-2.9,0.06-5.38-2.38-5.37-5.26c0.01-2.88,2.53-5.33,5.4-5.25
				C689.97,11.48,692.22,13.82,692.21,16.68z"/>
			<path d="M304.43,0.5c0.69,3.14-0.18,5.53-2.47,7.05c-2.09,1.38-4.94,1.39-7.01,0.01c-2.3-1.53-3.16-3.86-2.48-7.05
				C296.38,0.5,300.34,0.5,304.43,0.5z"/>
			<path d="M686.35,43.31c0-2.98,2.33-5.26,5.32-5.21c2.85,0.05,5.16,2.37,5.17,5.19c0.01,2.89-2.47,5.29-5.38,5.23
				C688.58,48.46,686.35,46.19,686.35,43.31z"/>
			<path d="M691.15,70.28c-0.04-2.99,2.24-5.31,5.24-5.29c2.84,0.01,5.18,2.28,5.25,5.1c0.07,2.88-2.37,5.33-5.29,5.31
				C693.46,75.39,691.19,73.15,691.15,70.28z"/>
			<path d="M602.05,9.44c-4.01,0.01-6.69-4.18-5.01-7.78c0.41-0.89,0.95-1.37,2-1.34c1.99,0.06,3.99,0.07,5.98,0
				c1.06-0.04,1.61,0.46,2.02,1.32C608.74,5.22,606.05,9.43,602.05,9.44z"/>
			<path d="M713.63,17.04c-2.83-0.01-5.17-2.4-5.14-5.25c0.04-2.84,2.46-5.2,5.27-5.12c2.75,0.08,4.98,2.36,5.01,5.13
				C718.8,14.66,716.46,17.05,713.63,17.04z"/>
			<path d="M723.57,38.77c-0.01,2.85-2.4,5.21-5.22,5.16c-2.84-0.06-5.14-2.48-5.06-5.32c0.07-2.74,2.38-5.02,5.11-5.04
				C721.21,33.53,723.59,35.92,723.57,38.77z"/>
			<path d="M723.01,70.49c-2.92,0-5.18-2.26-5.15-5.16c0.03-2.8,2.22-5.01,5.02-5.06c2.9-0.06,5.24,2.18,5.27,5.05
				C728.19,68.19,725.9,70.49,723.01,70.49z"/>
			<path d="M745.54,7.29c0.01,2.82-2.15,5.02-4.95,5.06c-2.86,0.04-5.22-2.32-5.15-5.15c0.07-2.74,2.37-4.97,5.13-4.95
				C743.35,2.26,745.53,4.48,745.54,7.29z"/>
			<path d="M740.06,33.9c0.02-2.82,2.21-5,5.01-5.01c2.75,0,5.05,2.24,5.1,4.98c0.05,2.8-2.39,5.22-5.19,5.15
				C742.21,38.96,740.04,36.7,740.06,33.9z"/>
			<path d="M744.86,60.93c-0.05-2.83,2.06-5.06,4.86-5.15c2.85-0.09,5.26,2.24,5.25,5.07c-0.01,2.72-2.31,5.03-5.04,5.06
				C747.19,65.94,744.91,63.7,744.86,60.93z"/>
			<path d="M776.56,60.95c-2.8,0.02-5.09-2.26-5.03-5.01c0.05-2.68,2.25-4.83,4.95-4.85c2.84-0.02,5.03,2.18,4.99,5.01
				C781.43,58.82,779.3,60.94,776.56,60.95z"/>
			<path d="M767.01,29.44c-0.03-2.76,2.22-5.06,4.95-5.06c2.7,0,5.03,2.36,5,5.06c-0.03,2.63-2.24,4.86-4.87,4.93
				C769.34,34.44,767.04,32.21,767.01,29.44z"/>
			<path d="M798.49,29.49c-2.68-0.08-4.79-2.31-4.73-5.02c0.06-2.69,2.31-4.86,4.96-4.78c2.67,0.08,4.83,2.36,4.76,5.02
				C803.42,27.35,801.11,29.56,798.49,29.49z"/>
			<path d="M803.44,56.06c-2.75,0.02-4.86-2.06-4.88-4.8c-0.02-2.74,2.08-4.87,4.81-4.89c2.7-0.02,4.9,2.13,4.92,4.81
				C808.31,53.87,806.16,56.04,803.44,56.06z"/>
			<path d="M874.01,10.4c0.01-2.62,2.06-4.72,4.65-4.78c2.63-0.06,4.93,2.19,4.91,4.81c-0.01,2.63-2.3,4.83-4.95,4.76
				C876.02,15.13,874.01,13.04,874.01,10.4z"/>
			<path d="M1039.13,9.05c-0.03-2.72,2.11-4.9,4.8-4.87c2.54,0.03,4.72,2.19,4.77,4.72c0.05,2.62-2.21,4.88-4.86,4.85
				C1041.23,13.74,1039.17,11.68,1039.13,9.05z"/>
			<path d="M941.83,27.75c-0.02,2.62-2.07,4.69-4.68,4.73c-2.65,0.03-4.92-2.21-4.88-4.83c0.04-2.53,2.21-4.7,4.75-4.74
				C939.69,22.87,941.85,25.04,941.83,27.75z"/>
			<path d="M900.89,5.52c0.05-2.61,2.14-4.68,4.73-4.69c2.64-0.01,4.9,2.29,4.83,4.9c-0.07,2.55-2.24,4.67-4.8,4.67
				C902.95,10.41,900.84,8.25,900.89,5.52z"/>
			<path d="M914.95,32.6c-0.05,2.62-2.12,4.67-4.73,4.68c-2.65,0.01-4.9-2.26-4.83-4.88c0.06-2.54,2.25-4.68,4.79-4.7
				C912.86,27.69,914.99,29.88,914.95,32.6z"/>
			<path d="M856.87,15.19c0.01,2.73-2.13,4.86-4.84,4.81c-2.55-0.05-4.7-2.21-4.72-4.75c-0.02-2.62,2.28-4.87,4.91-4.82
				C854.8,10.48,856.85,12.58,856.87,15.19z"/>
			<path d="M1021.99,13.49c0.03,2.71-2.13,4.87-4.82,4.83c-2.56-0.04-4.71-2.18-4.75-4.72c-0.04-2.64,2.19-4.83,4.88-4.8
				C1019.94,8.83,1021.96,10.86,1021.99,13.49z"/>
			<path d="M834.79,46.65c0.01,2.71-2.16,4.85-4.85,4.79c-2.56-0.06-4.7-2.22-4.71-4.76c-0.01-2.64,2.23-4.82,4.91-4.77
				C832.77,41.96,834.78,44.01,834.79,46.65z"/>
			<path d="M990.72,13.6c2.59,0.05,4.7,2.18,4.7,4.74c0,2.63-2.28,4.85-4.93,4.79c-2.69-0.07-4.75-2.28-4.63-5.01
				C985.97,15.49,988.06,13.54,990.72,13.6z"/>
			<path d="M958.98,23.19c-0.02-2.74,2.08-4.83,4.82-4.8c2.59,0.03,4.71,2.13,4.74,4.7c0.03,2.62-2.24,4.87-4.88,4.83
				C961.06,27.89,959,25.8,958.98,23.19z"/>
			<path d="M829.98,19.83c-0.02,2.61-2.08,4.69-4.68,4.73c-2.64,0.04-4.92-2.2-4.89-4.83c0.03-2.56,2.15-4.66,4.74-4.7
				C827.9,15,830.01,17.09,829.98,19.83z"/>
			<path d="M861.66,41.75c0.06,2.71-2.06,4.9-4.75,4.89c-2.56,0-4.73-2.11-4.8-4.66c-0.08-2.64,2.13-4.86,4.81-4.86
				C859.56,37.12,861.61,39.12,861.66,41.75z"/>
			<path d="M878.82,37.15c-0.04-2.74,2.05-4.85,4.79-4.83c2.6,0.02,4.72,2.09,4.78,4.66c0.05,2.62-2.2,4.88-4.85,4.86
				C880.93,41.82,878.85,39.75,878.82,37.15z"/>
			<path d="M1070.9,0.33c3.13,0,4.04,0.58,4.56,2.93c0.44,2.01-0.63,4.2-2.54,5.18c-1.9,0.97-4.22,0.56-5.67-1.02
				c-1.48-1.61-1.65-4.15-0.43-5.95c0.53-0.79,1.19-1.23,2.18-1.15C1069.63,0.38,1070.26,0.33,1070.9,0.33z"/>
			<path d="M469.35,0.46c-0.1,3.92-2.48,6.31-5.97,6.22c-3.36-0.09-5.56-2.49-5.57-6.22C461.61,0.46,465.41,0.46,469.35,0.46z"/>
			<path d="M771.58,0.43c0.93,2.77,0.35,4.85-1.65,6.19c-1.91,1.27-4.26,1.14-5.99-0.34c-1.76-1.51-2.14-3.44-1.11-5.85
				C765.74,0.43,768.68,0.43,771.58,0.43z"/>
			<path d="M7.41,194.92c-1.99,0.34-4.07,0.7-6.36,1.09c0-3.5,0-6.8,0-10.11C5.98,185.97,8.75,189.8,7.41,194.92z"/>
			<path d="M166.39,0.48c-0.98,3.58-3.57,5.55-6.81,5.35c-3.1-0.19-5.36-2.19-5.93-5.35C157.86,0.48,162.05,0.48,166.39,0.48z"/>
			<path d="M0.97,33.91c0-4.39,0-8.6,0-12.82c3.11,0.28,5.39,2.87,5.5,6.17C6.58,30.59,4.45,33.26,0.97,33.91z"/>
			<path d="M936.82,0.48c0.27,3.06-1.54,5.25-4.37,5.36c-2.88,0.11-4.83-1.99-4.85-5.36C930.67,0.48,933.75,0.48,936.82,0.48z"/>
			<path d="M623.66,0.43c3.33,0,6.65,0,9.97,0c-0.21,2.51-2.04,4.2-4.65,4.32C626.12,4.88,624.1,3.27,623.66,0.43z"/>
			<path d="M330.64,0.5c-1.39,2.55-3.39,3.57-5.85,3.47c-2.23-0.09-4.05-1.11-5.22-3.47C323.31,0.5,326.81,0.5,330.64,0.5z"/>
			<path d="M1092.95,0.47c3.07,0,5.97,0,8.91,0c-0.8,2.51-2.23,3.67-4.42,3.69C1095.24,4.18,1093.73,3,1092.95,0.47z"/>
			<path d="M26.37,0.49c-2.92,3.14-6.97,3.13-9.74,0C19.87,0.49,22.98,0.49,26.37,0.49z"/>
			<path d="M1.04,170.55c0-3.19,0-6.09,0-9.14C3.74,164.06,3.76,167.64,1.04,170.55z"/>
			<path d="M789.87,0.45c2.76,0,5.1,0,7.45,0C795.94,3.22,792.72,3.37,789.87,0.45z"/>
			<path d="M486.75,0.43c2.62,0,4.69,0,6.84,0C491.82,2.22,489.83,2.31,486.75,0.43z"/>
			<path d="M957.44,0.43c1.25,0,2.24,0,3.22,0C959.32,1.12,959.32,1.12,957.44,0.43z"/>
			<path d="M185.32,0.46c1.05,0,2.09,0,3.14,0c0,0.09,0,0.18,0.01,0.27c-1.05,0-2.09,0-3.14,0C185.32,0.64,185.32,0.55,185.32,0.46z
				"/>
			<path d="M1.04,2.66c0-0.71,0-1.42,0-2.51C1.89,1.24,1.48,1.95,1.04,2.66z"/>
		</g>
	</g>
</g>
</svg>
