<?xml version="1.0" encoding="UTF-8"?> <svg xmlns="http://www.w3.org/2000/svg" xmlns:xlink="http://www.w3.org/1999/xlink" id="Layer_1" data-name="Layer 1" viewBox="0 0 142 143"><defs><style>.cls-1{fill:#242424;}.cls-2{fill:none;}.cls-3{clip-path:url(#clip-path);}.cls-4{clip-path:url(#clip-path-2);}.cls-5{clip-path:url(#clip-path-3);}.cls-6{clip-path:url(#clip-path-4);}.cls-7{clip-path:url(#clip-path-5);}.cls-8{clip-path:url(#clip-path-6);}.cls-9{clip-path:url(#clip-path-7);}.cls-10{clip-path:url(#clip-path-8);}.cls-11{opacity:0.7;}.cls-12{clip-path:url(#clip-path-9);}.cls-13{clip-path:url(#clip-path-10);}.cls-14{clip-path:url(#clip-path-11);}.cls-15{clip-path:url(#clip-path-12);}.cls-16{clip-path:url(#clip-path-13);}.cls-17{clip-path:url(#clip-path-14);}.cls-18{opacity:0.5;}.cls-19{clip-path:url(#clip-path-15);}.cls-20{clip-path:url(#clip-path-16);}.cls-21{clip-path:url(#clip-path-17);}.cls-22{clip-path:url(#clip-path-18);}.cls-23{opacity:0.4;}.cls-24{clip-path:url(#clip-path-19);}.cls-25{clip-path:url(#clip-path-20);}</style><clipPath id="clip-path"><rect class="cls-1" x="4.48303" y="5.23303" width="28.03395" height="28.03395"></rect></clipPath><clipPath id="clip-path-2"><rect class="cls-1" x="-42.88468" y="-4423.16412" width="1740.03817" height="9827.34891"></rect></clipPath><clipPath id="clip-path-3"><rect class="cls-1" x="4.48303" y="74.73303" width="28.03395" height="28.03395"></rect></clipPath><clipPath id="clip-path-4"><rect class="cls-1" x="-42.88468" y="-4353.66412" width="1740.03817" height="9827.34891"></rect></clipPath><clipPath id="clip-path-5"><rect class="cls-1" x="4.48303" y="109.73303" width="28.03395" height="28.03395"></rect></clipPath><clipPath id="clip-path-6"><rect class="cls-1" x="-42.88468" y="-4318.66412" width="1740.03817" height="9827.34891"></rect></clipPath><clipPath id="clip-path-7"><rect class="cls-2" x="4.48303" y="39.73303" width="28.03395" height="28.03395"></rect></clipPath><clipPath id="clip-path-8"><rect class="cls-2" x="-42.88468" y="-4388.66412" width="1740.03817" height="9827.34891"></rect></clipPath><clipPath id="clip-path-9"><rect class="cls-1" x="39.98303" y="74.73303" width="28.03395" height="28.03395"></rect></clipPath><clipPath id="clip-path-10"><rect class="cls-1" x="-7.38468" y="-4353.66412" width="1740.03817" height="9827.34891"></rect></clipPath><clipPath id="clip-path-11"><rect class="cls-1" x="39.98303" y="39.73303" width="28.03395" height="28.03395"></rect></clipPath><clipPath id="clip-path-12"><rect class="cls-1" x="-7.38468" y="-4388.66412" width="1740.03817" height="9827.34891"></rect></clipPath><clipPath id="clip-path-13"><rect class="cls-1" x="39.98303" y="109.73303" width="28.03395" height="28.03395"></rect></clipPath><clipPath id="clip-path-14"><rect class="cls-1" x="-7.38468" y="-4318.66412" width="1740.03817" height="9827.34891"></rect></clipPath><clipPath id="clip-path-15"><rect class="cls-1" x="74.48303" y="74.73303" width="28.03395" height="28.03395"></rect></clipPath><clipPath id="clip-path-16"><rect class="cls-1" x="27.11532" y="-4353.66412" width="1740.03817" height="9827.34891"></rect></clipPath><clipPath id="clip-path-17"><rect class="cls-1" x="74.48303" y="109.73303" width="28.03395" height="28.03395"></rect></clipPath><clipPath id="clip-path-18"><rect class="cls-1" x="27.11532" y="-4318.66412" width="1740.03817" height="9827.34891"></rect></clipPath><clipPath id="clip-path-19"><rect class="cls-1" x="109.48303" y="109.73303" width="28.03395" height="28.03395"></rect></clipPath><clipPath id="clip-path-20"><rect class="cls-1" x="62.11532" y="-4318.66412" width="1740.03817" height="9827.34891"></rect></clipPath></defs><title>proof_icon</title><rect class="cls-1" x="4.48303" y="5.23303" width="28.03395" height="28.03395"></rect><g class="cls-3"><rect class="cls-1" x="-42.88468" y="-4423.16412" width="1740.03817" height="9827.34891"></rect><g class="cls-4"><rect class="cls-1" x="4.48303" y="5.23303" width="28.03395" height="28.03395"></rect></g></g><rect class="cls-1" x="4.48303" y="74.73303" width="28.03395" height="28.03395"></rect><g class="cls-5"><rect class="cls-1" x="-42.88468" y="-4353.66412" width="1740.03817" height="9827.34891"></rect><g class="cls-6"><rect class="cls-1" x="4.48303" y="74.73303" width="28.03395" height="28.03395"></rect></g></g><rect class="cls-1" x="4.48303" y="109.73303" width="28.03395" height="28.03395"></rect><g class="cls-7"><rect class="cls-1" x="-42.88468" y="-4318.66412" width="1740.03817" height="9827.34891"></rect><g class="cls-8"><rect class="cls-1" x="4.48303" y="109.73303" width="28.03395" height="28.03395"></rect></g></g><g class="cls-9"><g class="cls-10"><path class="cls-1" d="M30.517,41.733V65.767H6.483V41.733H30.517m2-2H4.483V67.767H32.517V39.733Z"></path></g></g><g class="cls-11"><rect class="cls-1" x="39.98303" y="74.73303" width="28.03395" height="28.03395"></rect><g class="cls-12"><rect class="cls-1" x="-7.38468" y="-4353.66412" width="1740.03817" height="9827.34891"></rect><g class="cls-13"><rect class="cls-1" x="39.98303" y="74.73303" width="28.03395" height="28.03395"></rect></g></g></g><g class="cls-11"><rect class="cls-1" x="39.98303" y="39.73303" width="28.03395" height="28.03395"></rect><g class="cls-14"><rect class="cls-1" x="-7.38468" y="-4388.66412" width="1740.03817" height="9827.34891"></rect><g class="cls-15"><rect class="cls-1" x="39.98303" y="39.73303" width="28.03395" height="28.03395"></rect></g></g></g><g class="cls-11"><rect class="cls-1" x="39.98303" y="109.73303" width="28.03395" height="28.03395"></rect><g class="cls-16"><rect class="cls-1" x="-7.38468" y="-4318.66412" width="1740.03817" height="9827.34891"></rect><g class="cls-17"><rect class="cls-1" x="39.98303" y="109.73303" width="28.03395" height="28.03395"></rect></g></g></g><g class="cls-18"><rect class="cls-1" x="74.48303" y="74.73303" width="28.03395" height="28.03395"></rect><g class="cls-19"><rect class="cls-1" x="27.11532" y="-4353.66412" width="1740.03817" height="9827.34891"></rect><g class="cls-20"><rect class="cls-1" x="74.48303" y="74.73303" width="28.03395" height="28.03395"></rect></g></g></g><g class="cls-18"><rect class="cls-1" x="74.48303" y="109.73303" width="28.03395" height="28.03395"></rect><g class="cls-21"><rect class="cls-1" x="27.11532" y="-4318.66412" width="1740.03817" height="9827.34891"></rect><g class="cls-22"><rect class="cls-1" x="74.48303" y="109.73303" width="28.03395" height="28.03395"></rect></g></g></g><g class="cls-23"><rect class="cls-1" x="109.48303" y="109.73303" width="28.03395" height="28.03395"></rect><g class="cls-24"><rect class="cls-1" x="62.11532" y="-4318.66412" width="1740.03817" height="9827.34891"></rect><g class="cls-25"><rect class="cls-1" x="109.48303" y="109.73303" width="28.03395" height="28.03395"></rect></g></g></g></svg> 